<svg width="200" height="200" viewBox="0 0 200 200" fill="none" xmlns="http://www.w3.org/2000/svg">
<path d="M102.72 92.8571H96.6398L87.8572 0H110.714L102.72 92.8571Z" fill="#E1DCFF"/>
<path d="M98.5715 90.5775L93.264 93.5714L39.2858 19.0566L59.1606 7.85714L98.5715 90.5775Z" fill="#E1DCFF"/>
<path d="M92.8572 97.2801V103.473L0 112.143V89.2857L92.8572 97.2801Z" fill="#E1DCFF"/>
<path d="M92.1514 101.073L95.2005 106.381L19.3111 160.361L7.90508 140.486L92.1514 101.073Z" fill="#E1DCFF"/>
<path d="M93.9714 105L99.2858 108.057L60.502 192.857L40.7143 181.422L93.9714 105Z" fill="#E1DCFF"/>
<path d="M97.2802 107.143H103.473L112.143 200H89.2858L97.2802 107.143Z" fill="#E1DCFF"/>
<path d="M101.429 107.994L106.736 105L160.714 179.515L140.84 190.714L101.429 107.994Z" fill="#E1DCFF"/>
<path d="M105 106.018L108.057 100.714L192.857 139.423L181.422 159.286L105 106.018Z" fill="#E1DCFF"/>
<path d="M107.143 102.72V96.6397L200 87.8571V110.714L107.143 102.72Z" fill="#E1DCFF"/>
<path d="M108.069 98.5714L105 93.2639L181.378 39.2857L192.857 59.1605L108.069 98.5714Z" fill="#E1DCFF"/>
<path d="M106.019 95L100.714 91.834L139.423 7.14286L159.286 18.5632L106.019 95Z" fill="#E1DCFF"/>
<path d="M95 92.8282L91.8288 98L7 60.2568L18.4389 41L95 92.8282Z" fill="#C8AAF0"/>
<path d="M99.8985 107.71C104.576 107.71 108.368 103.906 108.368 99.2121C108.368 94.5187 104.576 90.7139 99.8985 90.7139C95.2208 90.7139 91.4287 94.5187 91.4287 99.2121C91.4287 103.906 95.2208 107.71 99.8985 107.71Z" fill="white"/>
</svg>
