<svg width="350" height="175" viewBox="0 0 350 175" fill="none" xmlns="http://www.w3.org/2000/svg">
<path d="M164.57 93.306C164.57 142.631 121.537 175 79.446 175C37.3553 175 0.918457 149.721 0.918457 106.562C0.918457 55.696 43.9516 24.8682 86.0424 24.8682C128.133 24.8682 164.57 50.7635 164.57 93.306ZM138.185 83.4411C127.191 46.4477 97.6645 20.244 61.8559 30.4172C26.0473 40.5904 16.3099 79.1252 27.3037 116.427C38.2976 153.42 67.824 179.932 103.633 169.451C139.441 159.278 149.179 120.743 138.185 83.4411Z" fill="#503278"/>
<path d="M350 170.992V173.15H311.05V170.992C316.076 168.218 317.332 162.977 316.39 152.804C315.448 142.631 310.736 90.5315 309.165 74.501C306.967 51.3801 295.345 25.1764 268.331 30.4172C233.151 37.1993 226.554 101.629 226.554 127.525V152.804C226.554 163.593 228.753 168.218 233.779 170.992V173.15H194.829V170.992C199.541 168.218 201.74 163.593 201.74 152.804V48.6056C201.74 37.8159 200.797 34.7331 194.829 33.8082V31.6503L224.356 24.8682H226.554V101.321C230.638 66.794 241.318 24.8682 282.152 24.8682C307.909 24.8682 329.897 42.1317 333.666 79.1252C336.807 109.028 339.948 141.397 341.205 152.804C342.461 163.902 345.288 168.218 350 170.992Z" fill="#503278"/>
<path d="M203.795 101.991C213.544 94.5981 225.066 83.8162 225.066 61.6364C225.066 35.4518 209.999 4.64647 186.59 4.64647C173.557 4.64647 163.495 11.7317 163.807 30.2149C164.381 45.9256 179.761 65.0249 192.794 87.8209C204.316 107.536 215.89 125.403 215.577 141.114C215.577 152.512 208.487 157.749 198.738 158.365C182.889 159.751 167.613 137.777 162.869 119.499C163.651 115.392 164.12 111.13 164.12 106.612C164.12 57.3236 121.265 24.978 79.3491 24.978C62.2489 24.978 46.7127 28.0585 33.6269 35.8112L12.2092 0L0 9.57533L30.7595 38.173C19.6548 48.082 1.1991 76.9363 1.1991 93.3659C1.1991 144.195 44.0539 175 85.9702 175C119.962 175 150.252 157.954 160.471 128.843C166.153 149.534 186.486 174.281 202.596 173.716C216.203 173.408 221.833 162.37 220.634 146.043C219.748 131.564 212.032 116.162 203.795 101.991ZM194.306 85.9726C183.671 68.1055 170.95 48.3901 169.751 38.8404C167.978 26.5183 178.04 22.8216 191.647 23.4377C211.198 24.6699 223.293 37.9162 222.98 61.6364C222.667 84.4323 210.572 93.982 202.283 99.835C199.624 95.2142 196.965 90.5934 194.306 85.9726ZM137.844 116.47C126.896 153.436 97.4919 179.621 61.8318 169.455C26.1716 159.289 16.4746 120.783 27.4229 83.5081C38.3712 46.5417 67.7752 20.0491 103.435 30.523C139.095 40.6887 148.793 79.1954 137.844 116.47Z" fill="#FF9BBE"/>
</svg>
