<svg width="50" height="50" viewBox="0 0 50 50" fill="none" xmlns="http://www.w3.org/2000/svg">
<rect width="50" height="50" rx="5" fill="#FF1EC8"/>
<path d="M40.35 11H28.8C27.5783 11.004 26.4019 11.443 25.5 12.2316C24.5981 11.443 23.4217 11.004 22.2 11H10.65C10.2124 11 9.79271 11.1664 9.48327 11.4625C9.17384 11.7586 9 12.1602 9 12.579V36.2635C9 36.6823 9.17384 37.0839 9.48327 37.38C9.79271 37.6761 10.2124 37.8425 10.65 37.8425H20.1507C21.0186 37.8425 21.87 38.1804 22.4838 38.7677L24.3335 40.5378C24.3483 40.552 24.3681 40.5567 24.3829 40.5709C24.5248 40.6957 24.6832 40.8062 24.868 40.8804H24.8714C25.2739 41.0399 25.7261 41.0399 26.1286 40.8804H26.132C26.3168 40.8062 26.4751 40.6957 26.617 40.5709C26.6319 40.5567 26.6517 40.552 26.6665 40.5378L28.5162 38.7677C29.1365 38.1776 29.9747 37.8452 30.8493 37.8425H40.35C40.7876 37.8425 41.2073 37.6761 41.5167 37.38C41.8262 37.0839 42 36.6823 42 36.2635V12.579C42 12.1602 41.8262 11.7586 41.5167 11.4625C41.2073 11.1664 40.7876 11 40.35 11ZM20.1507 34.6845H12.3V14.1579H22.2C23.1108 14.1579 23.85 14.8669 23.85 15.7369V35.7724C22.7568 35.067 21.4692 34.6883 20.1507 34.6845ZM38.7 34.6845H30.8493C29.5309 34.6845 28.2357 35.0729 27.15 35.7724V15.7369C27.15 14.8669 27.8892 14.1579 28.8 14.1579H38.7V34.6845Z" fill="white"/>
</svg>
