<svg width="280" height="280" viewBox="0 0 280 280" fill="none" xmlns="http://www.w3.org/2000/svg">
<path fill-rule="evenodd" clip-rule="evenodd" d="M144.61 120.666L195.192 10L223 25.9883L153.146 126.225L253.929 55L270 82.8252L158.931 134.451L280 123V155L159.156 144.596L270 195.192L253.991 223L153.995 153.302L225 251.321L197.175 267L145.698 158.953L157 280H125L135.405 159.138L84.7031 270L57 253.991L127.197 153.259L27.0352 224.506L11.0674 196.68L119.791 145.815L0 157V125L130 136.192V143.222L132.471 147.524L136.775 150H144.112L147.046 148.345L150 143.219V135.758L148.395 132.98L143.4 130H135.296L135.146 128.418L130.569 131L55 26.6787L82.8252 11L134.249 118.936L123 0H155L144.61 120.666Z" fill="#E1F0FF"/>
<path d="M133 129.741L128.568 137L10 84.027L25.9884 57L133 129.741Z" fill="#A0D2FF"/>
<path d="M139.858 150.795C146.407 150.795 151.715 145.468 151.715 138.898C151.715 132.327 146.407 127 139.858 127C133.309 127 128 132.327 128 138.898C128 145.468 133.309 150.795 139.858 150.795Z" fill="white"/>
</svg>
