<svg width="245" height="190" viewBox="0 0 245 190" fill="none" xmlns="http://www.w3.org/2000/svg">
<path d="M221.845 110.733C232.458 102.706 245 91.0004 245 66.9195C245 38.4905 228.599 5.04474 203.117 5.04474C188.929 5.04474 177.975 12.7373 178.316 32.8048C178.94 49.8621 195.682 70.5985 209.87 95.3484C222.413 116.754 235.012 136.152 234.671 153.21C234.671 165.585 226.953 171.27 216.34 171.939C199.087 173.444 182.459 149.586 177.294 129.742C178.146 125.282 178.656 120.656 178.656 115.75C178.656 62.237 132.006 27.119 86.3771 27.119C67.7623 27.119 50.8501 30.4635 36.6053 38.8807L13.2906 0L0 10.3961L33.4839 41.4449C21.3956 52.2033 1.3053 83.5309 1.3053 101.369C1.3053 156.554 47.9558 190 93.5847 190C130.587 190 163.56 171.493 174.684 139.887C180.87 162.351 203.003 189.22 220.54 188.606C235.352 188.272 241.481 176.287 240.176 158.561C239.211 142.841 230.812 126.119 221.845 110.733ZM211.516 93.3416C199.939 73.9431 186.091 52.5378 184.786 42.1696C182.856 28.7913 193.809 24.7778 208.622 25.4467C229.904 26.7845 243.07 41.1662 242.73 66.9195C242.389 91.6694 229.223 102.038 220.199 108.392C217.305 103.375 214.41 98.3585 211.516 93.3416ZM150.053 126.453C138.135 166.588 106.127 195.017 67.3083 183.98C28.4897 172.943 17.9338 131.135 29.8518 90.666C41.7698 50.531 73.7781 21.7676 112.597 33.1392C151.415 44.1763 161.971 85.9836 150.053 126.453Z" fill="#FF9BBE"/>
</svg>
