<svg width="90" height="65" viewBox="0 0 90 65" fill="none" xmlns="http://www.w3.org/2000/svg">
<path d="M18.1331 32.4103H65.3012C62.3224 32.4827 41.2991 6.6416 41.2991 6.6416C40.6126 7.77867 39.9371 8.8578 39.2671 9.90071C46.8359 19.4318 57.4999 32.4103 59.4599 32.4103H18.1331Z" fill="#7CC16E"/>
<path d="M0 33.8213C0 33.8213 41.7144 48.1107 53.6352 65.0001C53.6352 65.0001 57.7767 58.337 63.9448 51.1742C52.406 42.7078 16.6381 33.8213 16.6381 33.8213H0Z" fill="#004EA2"/>
<path d="M89.9945 33.8213C80.6484 33.8213 71.114 42.8382 63.9382 51.1742C65.0456 51.9854 65.9315 52.7966 66.5405 53.586C66.5405 53.586 79.5798 33.8213 89.989 33.8213H89.9945Z" fill="#9FD8EE"/>
<path d="M16.6372 33.8213C16.6372 33.8213 52.3995 42.7078 63.9438 51.1742C71.1195 42.8382 80.654 33.8213 90.0001 33.8213H16.6372Z" fill="#007BC7"/>
<path d="M39.2726 9.90045C34.8819 4.36721 31.5321 0 31.5321 0C14.6504 27.9342 0.132812 32.41 0.132812 32.41H18.133C18.133 32.41 26.92 29.1799 39.2726 9.90045Z" fill="#B4D78D"/>
<path d="M18.1682 32.5741H59.5006C57.5405 32.5741 46.8766 19.5955 39.3078 10.0645C26.9551 29.3439 18.1848 32.5668 18.1682 32.5741Z" fill="#07A33E"/>
</svg>
