<svg width="380" height="163" viewBox="0 0 380 163" fill="none" xmlns="http://www.w3.org/2000/svg">
<path d="M178.146 74.3039C178.146 127.856 131.302 163 85.4829 163C39.6641 163 0 135.554 0 88.6961C0 33.4702 46.8446 0 92.6635 0C138.482 0 178.146 28.115 178.146 74.3039ZM149.424 63.5934C137.457 23.4292 105.315 -5.02054 66.3347 6.02464C27.3545 17.0698 16.7547 58.9076 28.7223 99.4066C40.6899 139.571 72.8314 168.355 111.812 156.975C150.792 145.93 161.392 104.092 149.424 63.5934Z" fill="#503278"/>
<path d="M380 158.649V160.992H337.6V158.649C343.071 155.637 344.439 149.947 343.413 138.901C342.388 127.856 337.258 71.2916 335.549 53.8871C333.155 28.7844 320.504 0.334702 291.098 6.02464C252.801 13.3881 245.621 83.3409 245.621 111.456V138.901C245.621 150.616 248.014 155.637 253.485 158.649V160.992H211.086V158.649C216.215 155.637 218.608 150.616 218.608 138.901V25.7721C218.608 14.0575 217.582 10.7105 211.086 9.70636V7.36345L243.227 0H245.621V83.0062C250.066 45.5195 261.692 0 306.143 0C334.181 0 358.116 18.7433 362.22 58.9076C365.639 91.3737 369.058 126.517 370.426 138.901C371.794 150.951 374.871 155.637 380 158.649Z" fill="#503278"/>
</svg>
