<svg width="15" height="25" viewBox="0 0 15 25" fill="none" xmlns="http://www.w3.org/2000/svg">
<path d="M12.75 0H2.25C1.00781 0 0 1.0498 0 2.34375V22.6562C0 23.9502 1.00781 25 2.25 25H12.75C13.9922 25 15 23.9502 15 22.6562V2.34375C15 1.0498 13.9922 0 12.75 0ZM7.5 23.4375C6.67031 23.4375 6 22.7393 6 21.875C6 21.0107 6.67031 20.3125 7.5 20.3125C8.32969 20.3125 9 21.0107 9 21.875C9 22.7393 8.32969 23.4375 7.5 23.4375ZM12.75 18.1641C12.75 18.4863 12.4969 18.75 12.1875 18.75H2.8125C2.50312 18.75 2.25 18.4863 2.25 18.1641V2.92969C2.25 2.60742 2.50312 2.34375 2.8125 2.34375H12.1875C12.4969 2.34375 12.75 2.60742 12.75 2.92969V18.1641Z" fill="#856FA3"/>
</svg>
