<svg width="120" height="32" viewBox="0 0 120 32" fill="none" xmlns="http://www.w3.org/2000/svg">
<path d="M11.874 8.68741V23.2118H16.422V13.0726L22.104 23.0519H26.616V8.68741H22.368V18.2637L16.596 8.68741H11.874Z" fill="#E60014"/>
<path d="M32.9339 8.68741H29.322V11.68H32.9339V8.68741Z" fill="#E60014"/>
<path d="M32.9339 13.4756H29.322V23.0519H32.9339V13.4756Z" fill="#E60014"/>
<path d="M35.6219 13.3037V23.04H39.9539C40.0139 23.04 39.8759 16.6815 39.9539 16.0237C39.984 15.723 40.1148 15.4407 40.3256 15.2217C40.5365 15.0028 40.8153 14.8595 41.1179 14.8148C41.5475 14.742 41.9892 14.8257 42.361 15.0502C42.7329 15.2747 43.0097 15.6248 43.1399 16.0356C43.2959 16.5511 43.1399 23.0459 43.1399 23.0459H47.3399V17.3037C47.3788 16.2097 46.9939 15.1423 46.2637 14.3187C45.5336 13.4952 44.513 12.9775 43.4099 12.8711C43.4099 12.8711 41.8679 12.563 39.5519 13.9022V13.3096L35.6219 13.3037Z" fill="#E60014"/>
<path d="M70.0259 13.4756V23.2118H74.3579C74.4179 23.2118 74.2799 16.8533 74.3579 16.1896C74.3916 15.8936 74.5235 15.617 74.7329 15.4026C74.9423 15.1883 75.2176 15.0483 75.5159 15.0044C75.9408 14.9298 76.3787 15.0084 76.7499 15.2259C77.121 15.4435 77.4007 15.7855 77.5379 16.1896C77.6939 16.7111 77.5379 23.2059 77.5379 23.2059H81.7379V17.4756C81.7784 16.3815 81.3951 15.3133 80.666 14.4887C79.9369 13.664 78.917 13.1449 77.8139 13.037C77.8139 13.037 76.2719 12.7289 73.9559 14.0681V13.4756H70.0259Z" fill="#E60014"/>
<path d="M54.2279 11.923V9.60592H50.0639V11.923H47.8559V13.4756H50.0639V23.0519H54.2279V13.4756H56.5199V11.923H54.2279Z" fill="#E60014"/>
<path d="M68.1299 19.4904H63.9959C63.9959 19.4904 63.9359 22.2459 62.0999 22.2459C61.6739 22.2459 60.1439 22.4415 60.3719 18.2637H68.1299C68.1299 18.2637 68.0759 13.037 62.2979 13.037C60.7753 12.953 59.2785 13.4517 58.1186 14.4296C56.9587 15.4074 56.225 16.7891 56.0699 18.2874C56.0699 18.2874 55.5599 23.6859 62.0699 23.6859C68.5799 23.6859 68.1299 19.4904 68.1299 19.4904ZM62.1299 14.157C64.0619 14.157 63.8939 16.5274 63.8939 16.5274H60.3779C60.3779 16.5274 60.2339 14.1511 62.0999 14.1511L62.1299 14.157Z" fill="#E60014"/>
<path d="M90.8399 8.33778V13.6711C90.1104 13.148 89.2333 12.8641 88.3319 12.8593C85.7279 12.8593 83.6219 15.2296 83.6219 18.1393C83.6219 21.0489 85.7279 23.4193 88.3319 23.4193C89.2337 23.4173 90.1118 23.1331 90.8399 22.6074V23.2415H94.7999V8.33778H90.8399ZM90.8399 20.4267C90.7817 20.7482 90.6146 21.0406 90.3661 21.2559C90.1175 21.4713 89.8022 21.5968 89.4719 21.6119C88.4639 21.6119 87.6419 20.0533 87.6419 18.1274C87.6419 16.2015 88.4639 14.643 89.4719 14.643C90.4799 14.643 90.9059 15.8281 91.0199 16.6696C91.0915 17.1939 91.1216 17.7229 91.1099 18.2519C91.1269 18.9859 91.0359 19.7185 90.8399 20.4267Z" fill="#E60014"/>
<path d="M102.534 12.8948C101.812 12.8823 101.095 13.0103 100.423 13.2715C99.7515 13.5327 99.1385 13.9221 98.6192 14.4174C98.0999 14.9127 97.6845 15.5041 97.3967 16.158C97.1089 16.8118 96.9543 17.5153 96.9418 18.2281C97.0085 19.6487 97.6268 20.9892 98.6682 21.9712C99.7096 22.9532 101.094 23.5011 102.534 23.5011C103.974 23.5011 105.358 22.9532 106.4 21.9712C107.441 20.9892 108.059 19.6487 108.126 18.2281C108.113 17.5153 107.959 16.8118 107.671 16.158C107.383 15.5041 106.968 14.9127 106.448 14.4174C105.929 13.9221 105.316 13.5327 104.645 13.2715C103.973 13.0103 103.256 12.8823 102.534 12.8948ZM102.534 22.0859C101.454 22.0859 100.584 20.3615 100.584 18.2281C100.584 16.0948 101.454 14.3644 102.534 14.3644C103.614 14.3644 104.49 16.0948 104.49 18.2281C104.49 20.3615 103.614 22.0859 102.534 22.0859Z" fill="#E60014"/>
<path d="M104.46 32H15.5401C11.4037 31.9843 7.44303 30.3468 4.52889 27.4475C1.61474 24.5482 -0.0142547 20.6245 9.39928e-05 16.5393V15.4607C-0.0142547 11.3755 1.61474 7.45179 4.52889 4.5525C7.44303 1.65321 11.4037 0.0156881 15.5401 0H104.46C108.596 0.0156881 112.557 1.65321 115.471 4.5525C118.385 7.45179 120.014 11.3755 120 15.4607V16.5393C120.014 20.6245 118.385 24.5482 115.471 27.4475C112.557 30.3468 108.596 31.9843 104.46 32ZM15.5401 4.18963C12.5249 4.2053 9.63888 5.40008 7.51359 7.51247C5.3883 9.62486 4.19687 12.4828 4.20009 15.4607V16.5393C4.20003 19.5131 5.3912 22.3662 7.51357 24.4757C9.63593 26.5852 12.5171 27.7797 15.5281 27.7985H104.46C107.471 27.7797 110.352 26.5852 112.474 24.4757C114.597 22.3662 115.788 19.5131 115.788 16.5393V15.4607C115.788 12.4869 114.597 9.63377 112.474 7.52428C110.352 5.41479 107.471 4.22026 104.46 4.20148L15.5401 4.18963Z" fill="#E60014"/>
<path d="M109.125 8.55814C110.368 8.55814 111.375 9.55721 111.375 10.7907C111.375 12.0242 110.368 13.0233 109.125 13.0233C107.882 13.0233 106.875 12.0242 106.875 10.7907C106.875 9.55721 107.882 8.55814 109.125 8.55814ZM109.125 8C107.573 8 106.312 9.25023 106.312 10.7907C106.312 12.3312 107.573 13.5814 109.125 13.5814C110.677 13.5814 111.938 12.3312 111.938 10.7907C111.938 9.25023 110.677 8 109.125 8Z" fill="#E60014"/>
<path d="M108.557 12.3982H108.113V9.18332H109.288C109.451 9.18332 109.598 9.20565 109.727 9.2503C109.856 9.29495 109.963 9.35634 110.053 9.43448C110.143 9.51262 110.205 9.60193 110.256 9.71355C110.301 9.8196 110.323 9.93681 110.323 10.0652V10.1824C110.323 10.3666 110.278 10.5229 110.183 10.6624C110.087 10.8019 109.952 10.908 109.778 10.9749L110.419 12.4038H109.935L109.35 11.0587H108.551V12.4038L108.557 12.3982ZM108.557 10.6791H109.176C109.429 10.6791 109.609 10.6345 109.716 10.5396C109.823 10.4447 109.873 10.3219 109.873 10.1601V10.0708C109.873 9.91448 109.823 9.78611 109.716 9.69681C109.609 9.60193 109.446 9.55727 109.221 9.55727H108.557V10.6791Z" fill="#E60014"/>
</svg>
