<svg width="28" height="28" viewBox="0 0 28 28" fill="none" xmlns="http://www.w3.org/2000/svg">
<path d="M19.1614 1.41797H8.66144C7.41925 1.41797 6.41144 2.46777 6.41144 3.76172V24.0742C6.41144 25.3682 7.41925 26.418 8.66144 26.418H19.1614C20.4036 26.418 21.4114 25.3682 21.4114 24.0742V3.76172C21.4114 2.46777 20.4036 1.41797 19.1614 1.41797ZM13.9114 24.8555C13.0818 24.8555 12.4114 24.1572 12.4114 23.293C12.4114 22.4287 13.0818 21.7305 13.9114 21.7305C14.7411 21.7305 15.4114 22.4287 15.4114 23.293C15.4114 24.1572 14.7411 24.8555 13.9114 24.8555ZM19.1614 19.582C19.1614 19.9043 18.9083 20.168 18.5989 20.168H9.22394C8.91456 20.168 8.66144 19.9043 8.66144 19.582V4.34766C8.66144 4.02539 8.91456 3.76172 9.22394 3.76172H18.5989C18.9083 3.76172 19.1614 4.02539 19.1614 4.34766V19.582Z" fill="#856FA3"/>
<path d="M4.07745 1.06543L13.9183 10.9443L23.8069 1.12305L24.1634 0.769531L24.5159 1.12695L26.7679 3.41211L27.1175 3.7666L26.764 4.11816L16.888 13.9268L26.7171 23.7939L27.0677 24.1465L26.7171 24.499L24.4534 26.7705L24.0999 27.127L23.7454 26.7705L13.9036 16.8906L4.01593 26.7129L3.65948 27.0664L3.30695 26.709L1.05499 24.4238L0.705383 24.0693L1.0589 23.7178L10.9339 13.9082L1.10577 4.04199L0.755188 3.68945L1.10577 3.33691L3.36847 1.06543L3.72296 0.708984L4.07745 1.06543Z" fill="#856FA3" stroke="white"/>
</svg>
