<svg width="395" height="395" viewBox="0 0 395 395" fill="none" xmlns="http://www.w3.org/2000/svg">
<path d="M204.005 170.223L275.361 14.1074L314.589 36.6621L216.047 178.067L358.221 77.5889L380.893 116.842L224.207 189.671L395 173.518V218.66L224.527 203.984L380.893 275.361L358.309 314.589L217.243 216.265L317.41 354.542L278.158 376.66L205.537 224.236L221.482 395H176.339L191.018 224.499L119.491 380.893L80.4111 358.309L179.438 216.205L38.1396 316.714L15.6123 277.459L168.994 205.702L0 221.482V176.339L183.393 192.128V202.045L186.879 208.114L192.951 211.607H203.301L207.44 209.271L211.607 202.041V191.517L209.342 187.598L202.296 183.393H190.863L190.651 181.161L184.196 184.804L77.5889 37.6367L116.842 15.5176L189.387 167.783L173.518 0H218.66L204.005 170.223Z" fill="#FFE1EB"/>
<path d="M187.885 183.562L181.614 193.905L13.8848 118.419L36.5025 79.9053L187.885 183.562Z" fill="#FFA0C3"/>
<path d="M197.705 213.165C206.962 213.165 214.467 205.635 214.467 196.347C214.467 187.058 206.962 179.528 197.705 179.528C188.447 179.528 180.942 187.058 180.942 196.347C180.942 205.635 188.447 213.165 197.705 213.165Z" fill="white"/>
</svg>
