<svg width="95" height="50" viewBox="0 0 95 50" fill="none" xmlns="http://www.w3.org/2000/svg">
<path d="M47.5 0C21.2669 0 0 11.1938 0 24.9981C0 38.8024 21.2669 49.9962 47.5 49.9962C73.7331 49.9962 95 38.8043 95 24.9981C95 11.1919 73.7331 0 47.5 0Z" fill="#FA96A5"/>
<path d="M78.8782 33.8705C78.8782 33.8705 79.449 43.2457 67.5607 45.6692C55.6724 48.0927 50.9365 45.1845 47.5001 42.2763C44.0638 45.1845 39.3316 48.0946 27.4395 45.6692C15.5474 43.2438 16.122 33.8705 16.122 33.8705C6.12883 33.8705 1.61743 30.3402 1.61743 24.688C1.61743 17.2458 14.3487 16.0894 14.3487 16.0894C10.9656 11.8913 15.9603 8.33046 15.9603 8.33046C24.1801 2.83469 32.83 7.54044 32.83 7.54044C37.056 0.787141 47.5001 1.14398 47.5001 1.14398C47.5001 1.14398 57.9423 0.783324 62.1683 7.53663C62.1683 7.53663 70.8182 2.83088 79.038 8.32664C79.038 8.32664 84.0346 11.8836 80.6496 16.0856C80.6496 16.0856 93.3828 17.2305 93.3828 24.6842C93.3828 30.8803 88.8695 33.8705 78.8782 33.8705Z" fill="white"/>
<path d="M33.3113 20.047C36.1064 19.297 36.8904 17.2686 36.1654 14.5378C35.4405 11.8071 33.9259 10.3912 30.9481 11.1908C27.9703 11.9903 27.371 13.9692 28.094 16.6999C28.817 19.4306 30.5162 20.8007 33.3113 20.047ZM32.2895 14.8355C32.4151 15.3469 32.4912 15.9137 32.3162 16.3965C32.2306 16.6045 31.8786 16.5472 31.9356 16.3774C32.0309 15.8787 32.0237 15.3657 31.9147 14.8699C31.8862 14.7058 32.2382 14.5989 32.2895 14.8355Z" fill="#FA647D"/>
<path d="M39.1014 18.7758C39.9671 18.6842 40.3305 18.0125 40.3305 17.2301C40.3305 16.6805 40.2982 16.1233 40.2715 15.5642C40.2807 15.5194 40.3042 15.4789 40.3386 15.4489C40.373 15.4188 40.4163 15.401 40.4618 15.3982C40.5112 15.3905 40.5617 15.4025 40.6023 15.4318C40.6429 15.4611 40.6703 15.5052 40.6787 15.5547C40.7567 16.0966 40.8443 16.6252 40.9641 17.1633C41.1297 17.9381 41.6111 18.5125 42.4978 18.417C43.3844 18.3216 43.7364 17.6537 43.7269 16.8714C43.742 15.9644 43.6994 15.0574 43.5994 14.1559C43.4453 12.7877 42.6576 11.7172 41.3162 11.866C40.9749 11.9028 40.6476 12.0225 40.3628 12.2147C40.078 12.4069 39.8443 12.6658 39.6817 12.969C39.5569 13.1861 39.4506 13.4133 39.3639 13.6483C39.2783 13.8391 39.0272 13.7571 39.1033 13.4861C39.2272 13.039 39.4738 12.6357 39.8149 12.3221C39.7673 11.9672 39.6627 11.2802 39.5999 10.9863C39.383 9.92914 38.932 9.75549 38.1291 9.84136C37.3261 9.92723 36.879 10.1829 36.9132 11.2592C36.957 12.3851 37.0445 13.9193 37.1815 15.11L37.2196 15.4764C37.3128 16.1653 37.4098 16.8408 37.562 17.524C37.7333 18.2968 38.2147 18.8712 39.1014 18.7758Z" fill="#FA647D"/>
<path d="M45.8959 15.92C45.0682 15.92 44.505 16.4924 44.5088 17.3683C44.5088 18.082 45.0929 18.6163 45.9111 18.6106C46.7293 18.6049 47.302 18.0667 47.2982 17.3531C47.2944 16.4695 46.7445 15.9142 45.8959 15.92Z" fill="#FA647D"/>
<path d="M45.894 15.4349C46.6551 15.4349 47.0242 14.9979 47.0832 14.3567C47.2536 12.9783 47.3229 11.5891 47.2906 10.2005C47.2659 9.49639 46.6856 9.00597 45.8579 9.00979C45.0302 9.0136 44.4555 9.51166 44.4384 10.2177C44.4121 11.6061 44.4935 12.9944 44.682 14.3701C44.7581 15.0112 45.1386 15.4387 45.894 15.4349Z" fill="#FA647D"/>
<path d="M53.5107 14.0117C53.4859 13.7636 53.7428 13.7503 53.7637 13.9563C53.9097 14.774 54.1287 15.5768 54.4183 16.355C54.4594 16.4839 54.5355 16.5987 54.638 16.6866C54.7405 16.7746 54.8654 16.8321 54.9987 16.8529C55.132 16.8737 55.2685 16.8569 55.3928 16.8044C55.5171 16.7518 55.6244 16.6656 55.7026 16.5554C56.212 15.8977 56.6609 15.1951 57.044 14.4563C57.1278 14.2655 57.3675 14.3571 57.2686 14.5861C57.0648 15.0267 56.8222 15.4482 56.5436 15.8455C56.4675 16.5363 56.4314 17.1164 56.399 17.8129C56.3495 18.6029 56.6901 19.2842 57.5502 19.4178C58.4102 19.5513 58.9411 19.0056 59.1447 18.2404C59.6569 16.2403 59.9755 14.1954 60.096 12.134C60.1322 11.3535 59.8125 10.6761 58.9316 10.5387C58.7256 10.4944 58.5119 10.5024 58.3099 10.5621C58.1078 10.6217 57.9239 10.7311 57.7747 10.8802C57.0307 11.6435 56.2525 12.8457 55.598 13.8495C55.5047 13.9735 55.4077 13.9583 55.3487 13.8113C55.029 12.6549 54.6371 11.2753 54.1709 10.3192C54.0724 10.1329 53.9298 9.97373 53.7556 9.85562C53.5815 9.7375 53.381 9.66408 53.172 9.64179C52.291 9.5063 51.7715 10.0521 51.5794 10.8096C51.0561 12.8074 50.7373 14.8534 50.628 16.916C50.5804 17.7061 50.9096 18.3854 51.7906 18.5228C52.6715 18.6602 53.1796 18.1106 53.3737 17.3435C53.5525 16.668 53.6914 16.105 53.8284 15.4238C53.6807 14.9635 53.5744 14.4909 53.5107 14.0117Z" fill="#FA647D"/>
<path d="M61.9113 19.5908C62.6457 19.8084 63.2032 19.6233 63.7703 19.1099C63.9111 18.9649 64.1394 19.1214 63.9605 19.3199C63.403 19.8351 62.8037 20.129 61.9589 19.879C61.6931 19.8 61.4326 19.7044 61.1787 19.5927C60.5527 19.3084 60.077 19.6939 59.7288 20.1652C59.3483 20.6995 59.1713 21.4247 59.8297 21.9055C60.3289 22.2314 60.8698 22.4881 61.4375 22.6688C62.484 22.978 63.6238 22.8978 64.4819 22.2089C65.3026 21.5436 65.8931 20.578 66.2533 19.3122L67.0772 16.4766C67.1307 16.318 67.1505 16.1499 67.1353 15.9832C67.1202 15.8165 67.0704 15.6548 66.9892 15.5085C66.908 15.3622 66.7973 15.2346 66.664 15.1338C66.5307 15.033 66.3778 14.9613 66.2153 14.9232L65.5912 14.7324C65.3045 14.6412 64.9952 14.652 64.7155 14.7629C64.4357 14.8738 64.2027 15.078 64.0557 15.3411L62.914 17.3734C62.7599 17.6024 62.5145 17.3982 62.6305 17.2246L63.6961 15.2362C63.9891 14.6885 63.8045 14.2057 63.1994 14.0264L62.5373 13.8355C62.2627 13.7452 61.9641 13.7642 61.7031 13.8885C61.4421 14.0128 61.2387 14.233 61.135 14.5034L60.3168 16.4327C59.6832 17.9555 60.7164 19.2359 61.9113 19.5908Z" fill="#FA647D"/>
<path d="M27.6429 27.8141C27.1306 27.6359 26.6033 27.5043 26.0674 27.421C25.8971 27.2193 25.6775 27.0654 25.43 26.9744C24.8592 26.755 24.1514 26.8199 23.9573 27.3313L22.6691 30.6994C22.2146 31.8591 21.819 33.0412 21.4837 34.2411C21.2782 34.9853 21.459 35.7181 22.281 36.0348C23.103 36.3516 23.7252 35.9261 24.0677 35.2353C24.2066 34.9624 24.4691 34.4204 24.5985 34.1094C23.8888 33.68 23.5577 33.1915 23.3161 32.413C23.2476 32.1821 23.5273 32.0981 23.5844 32.3004C23.7075 32.7317 23.9322 33.1271 24.2395 33.4532C24.5468 33.7793 24.9277 34.0266 25.3501 34.1743C26.0955 34.4608 26.9188 34.4691 27.6697 34.1976C28.4207 33.9261 29.0493 33.393 29.441 32.6954C30.5141 30.8558 29.9243 28.6919 27.6429 27.8141ZM27.3956 31.2489C26.8871 31.3838 26.3546 31.3995 25.8391 31.2947C25.6089 31.2508 25.7021 30.8921 25.8638 30.9131C26.3611 31.02 26.8764 31.0096 27.3689 30.8825C27.5192 30.8425 27.6239 31.186 27.3994 31.2547L27.3956 31.2489Z" fill="#FA647D"/>
<path d="M36.0226 30.277C35.1968 30.0862 34.5822 30.5671 34.4015 31.3228L33.8782 33.4886C33.7869 33.8245 33.4159 33.7558 33.471 33.4333L33.9867 31.296C34.1922 30.4373 33.9125 29.7694 32.7518 29.4832C31.5588 29.1931 31.0032 29.674 30.7863 30.5213C30.3372 32.2941 30.0042 33.4142 30.0042 34.2157C29.9925 34.5061 30.059 34.7944 30.1966 35.0502C30.3342 35.306 30.5378 35.52 30.7863 35.6698C31.0838 35.868 31.4164 36.0072 31.7662 36.08C32.2746 36.2031 32.7991 36.2463 33.3207 36.2079C33.2825 35.9476 33.2735 35.6839 33.2941 35.4217C33.2985 35.3956 33.3123 35.372 33.3329 35.3553C33.3535 35.3387 33.3794 35.3302 33.4058 35.3313C33.4322 35.3325 33.4572 35.3433 33.4763 35.3617C33.4953 35.3801 33.507 35.4048 33.5091 35.4312C33.5091 35.8014 33.355 36.5609 34.4605 36.83C34.7327 36.8916 35.0109 36.9229 35.2901 36.9235C36.0759 36.9235 36.074 35.9445 36.1882 35.248L36.9835 31.9468C37.1719 31.193 36.837 30.4736 36.0226 30.277Z" fill="#FA647D"/>
<path d="M43.8485 29.0058C42.9847 28.9142 42.4405 29.481 42.2769 30.2462C42.2141 30.5362 42.1056 31.2862 42.06 31.6297C42.4515 31.9512 42.7624 32.3603 42.9676 32.8242C42.9804 32.8504 42.987 32.8792 42.987 32.9084C42.9869 32.9376 42.9802 32.9664 42.9673 32.9925C42.9545 33.0187 42.9358 33.0416 42.9128 33.0594C42.8897 33.0772 42.8629 33.0894 42.8344 33.0952C42.7278 33.1066 42.6803 33.0589 42.6441 32.9483C42.2407 31.977 41.4016 31.4217 40.3608 31.3148C39.0574 31.1793 37.6304 31.8338 37.4097 33.9558C37.1319 36.6274 38.8767 37.5968 40.6691 37.7838C43.3824 38.049 44.5963 36.8296 44.9046 34.2955C45.0548 33.0479 45.1361 31.7929 45.1481 30.5362C45.1519 29.7558 44.7352 29.0879 43.8485 29.0058ZM41.2893 34.4367C40.8324 34.6991 40.3227 34.8556 39.7976 34.8947C39.5445 34.8947 39.5502 34.5302 39.712 34.513C40.2123 34.4833 40.6992 34.3391 41.1352 34.0913C41.2893 33.994 41.4796 34.3298 41.2893 34.4367Z" fill="#FA647D"/>
<path d="M51.3398 28.9216C50.4702 28.9579 50.0078 29.5991 49.9641 30.3796C49.945 30.6753 49.9469 31.4329 49.9508 31.7802C50.3859 32.0404 50.7536 32.4 51.0239 32.8297C51.0405 32.8539 51.0513 32.8815 51.0555 32.9105C51.0597 32.9395 51.0572 32.969 51.0482 32.9969C51.0392 33.0248 51.0239 33.0502 51.0035 33.0711C50.9831 33.0921 50.9582 33.1081 50.9307 33.1179C50.8279 33.1427 50.7727 33.1026 50.7157 32.9996C50.1734 32.097 49.2639 31.6638 48.2155 31.7172C46.9064 31.7745 45.5897 32.6313 45.681 34.7704C45.7952 37.4611 47.6618 38.1595 49.4637 38.0813C52.1979 37.9534 53.2197 36.5737 53.1531 34.0186C53.1198 32.7626 53.0169 31.5095 52.8448 30.2651C52.7383 29.4827 52.2302 28.8835 51.3398 28.9216ZM49.6026 34.6788C49.1879 35.0046 48.7064 35.2341 48.1926 35.3505C47.9434 35.3925 47.8958 35.0261 48.0518 34.9689C48.5429 34.8668 49.0038 34.6527 49.399 34.343C49.5417 34.2399 49.7643 34.5395 49.6026 34.6788Z" fill="#FA647D"/>
<path d="M55.2632 31.8002C54.3822 31.9337 54.0074 32.3955 54.0074 32.884C54.0034 34.1786 54.1992 35.466 54.5877 36.7005C54.7342 37.1776 55.2289 37.4963 56.1099 37.3608C56.9585 37.231 57.3258 36.7883 57.3334 36.2807C57.3519 34.9859 57.1591 33.6967 56.7626 32.4642C56.5989 31.9986 56.1137 31.6761 55.2632 31.8002Z" fill="#FA647D"/>
<path d="M55.1795 31.2599C55.3615 31.2307 55.5358 31.1653 55.6922 31.0675C55.8486 30.9698 55.9839 30.8417 56.0903 30.6908C56.1966 30.5399 56.2718 30.3691 56.3115 30.1887C56.3511 30.0082 56.3544 29.8216 56.3212 29.6398C56.207 28.8918 55.4954 28.2563 54.7381 28.3708C54.5546 28.4035 54.3794 28.4722 54.2225 28.5731C54.0656 28.674 53.9302 28.805 53.8241 28.9586C53.7179 29.1123 53.6432 29.2854 53.6041 29.4682C53.5651 29.6509 53.5625 29.8396 53.5965 30.0234C53.7449 30.9489 54.4774 31.3687 55.1795 31.2599Z" fill="#FA647D"/>
<path d="M64.2955 31.6771C64.1052 30.8584 63.8693 30.1257 63.1424 29.6505C62.8944 29.5013 62.6182 29.4053 62.3314 29.3685C62.0445 29.3317 61.7531 29.355 61.4756 29.4368C61.1397 29.5347 60.8362 29.7212 60.5966 29.9768C60.0372 30.5493 59.746 31.7782 60.0904 32.7972C60.1532 32.9976 59.883 33.0873 59.7917 32.8506C59.6566 32.4672 59.6008 32.0601 59.6276 31.6543C59.6544 31.2485 59.7633 30.8524 59.9477 30.4901C59.6167 30.0856 58.9869 30.0722 58.4084 30.2211C58.2441 30.2529 58.0883 30.3192 57.9513 30.4156C57.8142 30.5119 57.699 30.6362 57.6132 30.7803C57.5273 30.9244 57.4728 31.0851 57.4531 31.2518C57.4334 31.4185 57.449 31.5874 57.4989 31.7477L57.9632 33.572C58.1535 34.2398 58.3856 35.0165 58.6272 35.671C58.9031 36.4152 59.4778 36.8007 60.3397 36.5794C61.2016 36.358 61.4813 35.7569 61.3596 34.9726C61.3291 34.7627 61.2873 34.5566 61.253 34.3391C61.272 34.1158 61.5232 34.0834 61.5879 34.3391C61.645 34.5204 61.7116 34.6978 61.7782 34.8657C62.0636 35.6061 62.6477 35.9897 63.542 35.7607C64.4363 35.5317 64.6837 34.9364 64.6627 34.1273C64.6203 33.3005 64.4973 32.4798 64.2955 31.6771Z" fill="#FA647D"/>
<path d="M72.3669 32.9966C72.1766 31.8937 70.8447 31.1304 68.8031 31.8211C68.5576 31.9166 68.4701 31.6303 68.7155 31.5387C69.2622 31.3294 69.8429 31.2239 70.428 31.2277C71.1187 30.4644 71.0825 29.4129 70.7305 28.5122C70.4337 27.7489 70.1597 27.7108 70.1217 27.5886L70.1806 27.4188C70.2856 27.1816 70.2936 26.9126 70.2029 26.6696C70.1122 26.4266 69.93 26.229 69.6954 26.1193C69.1665 25.8311 68.628 25.9514 68.3635 26.4799L68.0401 27.1497C67.6764 27.2165 67.3193 27.3149 66.9726 27.4436C65.127 28.1687 64.558 29.5083 64.735 30.6247C64.8758 31.5635 65.5246 32.3593 66.3809 32.5081C66.1345 32.907 65.9972 33.3639 65.9829 33.8329C65.9685 34.3019 66.0776 34.7664 66.299 35.1797C66.8299 36.0784 68.0248 36.6032 69.9675 35.8399C71.8132 35.1224 72.5191 33.9298 72.3669 32.9966ZM68.0838 30.1839C68.0267 30.409 67.69 30.3747 67.7033 30.2068C67.7432 29.7071 67.6784 29.2047 67.513 28.7317C67.4578 28.5599 67.7661 28.4283 67.8593 28.663C68.042 29.1515 68.2132 29.7049 68.0838 30.1839ZM69.6555 34.4679C69.606 34.6892 69.2749 34.6683 69.2902 34.4851C69.3339 33.9897 69.269 33.4908 69.0999 33.0233C69.0428 32.8535 69.3663 32.7276 69.4538 32.9527C69.6212 33.4298 69.7734 33.9908 69.6555 34.4679Z" fill="#FA647D"/>
</svg>
