<svg width="155" height="22" viewBox="0 0 155 22" fill="none" xmlns="http://www.w3.org/2000/svg">
<path d="M5.2413 21.9999C4.76572 21.9999 4.20097 21.9501 3.54704 21.8503C2.90303 21.7505 2.25901 21.5709 1.65463 21.3215C1.04033 21.0721 0.525121 20.7328 0.118895 20.3238C0.0297238 19.9446 0 19.5356 0 19.0566C0 18.5777 0.0396318 18.0589 0.118895 17.5301C0.198159 17.0013 0.307146 16.5025 0.445857 16.0635L0.465673 15.9936H0.911531V16.1034C0.802543 17.1011 0.931347 17.9791 1.27812 18.7174C1.6249 19.4557 2.13021 20.0145 2.79404 20.3936C3.39842 20.7328 4.08207 20.9124 4.83508 20.9124C4.91434 20.9124 4.9936 20.9124 5.07287 20.9124C6.13302 20.8526 7.05446 20.4734 7.81737 19.785C8.57037 19.0966 8.95678 18.1587 8.95678 17.0013C8.95678 16.4426 8.8577 15.9238 8.66945 15.4648C8.4812 15.0158 8.19387 14.6167 7.82728 14.2875L2.14012 8.94964C1.53573 8.38093 1.10969 7.75236 0.861991 7.06393C0.6242 6.38547 0.495397 5.74692 0.495397 5.15826C0.495397 4.31019 0.703464 3.4721 1.09978 2.68389C1.50601 1.89569 2.11039 1.23719 2.90303 0.748297C3.69566 0.249432 4.67655 0 5.82587 0C6.14292 0 6.4897 0.0199546 6.8662 0.0598638C7.2328 0.099773 7.59939 0.159637 7.94617 0.229478L8.29295 0.309296H9.65034V4.19047H9.18466V4.09069C9.18466 3.17278 8.86761 2.43446 8.24341 1.90566C7.6093 1.37687 6.83648 1.10748 5.92495 1.10748C4.8648 1.10748 4.00281 1.44671 3.34888 2.11519C2.69496 2.78367 2.368 3.57187 2.368 4.44988C2.368 4.81904 2.44726 5.25804 2.6157 5.74692C2.77422 6.23581 3.08137 6.70475 3.52723 7.12379L9.38282 12.5714C9.98721 13.1401 10.3934 13.7587 10.6015 14.4072C10.7997 15.0557 10.8987 15.6843 10.8987 16.2929C10.8987 17.9691 10.3835 19.356 9.37291 20.4036C8.3623 21.4612 6.96528 21.99 5.2413 21.99V21.9999Z" fill="#55AA55"/>
<path d="M13.7323 21.0816H14.2475C14.7132 21.0816 15.0996 20.932 15.3968 20.6326C15.6941 20.3333 15.8526 19.9741 15.8724 19.5651V5.40728C15.8526 4.97825 15.6941 4.61907 15.3968 4.3397C15.0996 4.06034 14.7132 3.92066 14.2475 3.92066H13.7323V3.42179H22.4513C23.0557 3.42179 23.7096 3.36193 24.3933 3.26216C25.0769 3.15241 25.5525 3.05263 25.8002 2.95286L25.9389 2.90297V6.53471H25.4138V5.98596C25.4138 5.59684 25.285 5.25762 25.0373 4.97825C24.7896 4.69889 24.4527 4.5592 24.0267 4.5592H17.9729V11.9624H22.9269C23.3133 11.9624 23.5907 11.8526 23.7691 11.6231C23.9474 11.3937 24.0465 11.1143 24.0465 10.805V10.3161H24.5716V14.7061H24.0465V14.2172C24.0465 13.9079 23.9573 13.6286 23.7691 13.3991C23.5907 13.1696 23.3133 13.0599 22.9269 13.0599H17.9729V20.463H22.3919C23.3628 20.463 24.1555 20.3233 24.74 20.044C25.3246 19.7646 25.8101 19.3655 26.1767 18.8766C26.5433 18.3778 26.8702 17.8091 27.1477 17.1705L27.1774 17.1106H27.6827L25.9686 21.5905H13.7323V21.0816Z" fill="#55AA55"/>
<path d="M37.7788 22L30.5064 5.80684L30.4668 5.74698C30.1794 5.08848 29.8228 4.61954 29.4066 4.34018C28.9905 4.06081 28.5843 3.92113 28.2078 3.92113H27.8709V3.42227H34.1624V3.92113H33.8256C33.5184 3.92113 33.2509 4.07079 32.9933 4.38009C32.7654 4.65945 32.7258 5.06852 32.8843 5.58734L38.1157 18.4181L43.5155 5.54743C43.6741 5.04857 43.6344 4.65945 43.4066 4.38009C43.149 4.07079 42.8616 3.92113 42.5347 3.92113H42.2275V3.42227H48.0732V3.92113H47.7363C47.34 3.92113 46.9338 4.06081 46.5177 4.34018C46.1411 4.58961 45.8043 5.00866 45.507 5.58734L39.3542 18.8571C39.1362 19.3361 38.948 19.7451 38.8093 20.0943C38.6606 20.4435 38.5318 20.7828 38.413 21.122C38.2941 21.4512 38.2247 21.7206 38.2148 21.9102V22H37.7788Z" fill="#55AA55"/>
<path d="M49.0739 21.0816H49.5891C50.0548 21.0816 50.4412 20.932 50.7384 20.6326C51.0357 20.3333 51.1942 19.9741 51.214 19.5651V5.40727C51.1942 4.97825 51.0456 4.62905 50.7384 4.3397C50.4412 4.06034 50.0548 3.92066 49.5891 3.92066H49.0739V3.42179H57.7929C58.3973 3.42179 59.0611 3.36193 59.7348 3.26216C60.4185 3.15241 60.8941 3.05263 61.1418 2.95286L61.2805 2.90297V6.53471H60.7554V5.98596C60.7554 5.59684 60.6266 5.25762 60.3789 4.97825C60.1312 4.69889 59.7943 4.5592 59.3682 4.5592H53.3145V11.9624H58.2685C58.6549 11.9624 58.9323 11.8526 59.1106 11.6231C59.2989 11.3937 59.3881 11.1243 59.3881 10.805V10.3161H59.9132V14.7061H59.3881V14.2172C59.3881 13.898 59.2989 13.6286 59.1106 13.3991C58.9323 13.1696 58.6549 13.0599 58.2685 13.0599H53.3145V20.463H57.7334C58.7044 20.463 59.4971 20.3233 60.0816 20.044C60.6662 19.7646 61.1517 19.3755 61.5183 18.8766C61.8849 18.3778 62.2118 17.7991 62.4893 17.1805L62.519 17.1206H63.0243L61.3102 21.6004H49.0739V21.0816Z" fill="#55AA55"/>
<path d="M91.7577 21.5811V21.0823H92.2134C92.6593 21.0823 93.0457 20.9326 93.3628 20.6333C93.6798 20.334 93.8482 19.9748 93.8681 19.5657V4.49001H88.5871C88.1611 4.50997 87.8242 4.64965 87.5765 4.91904C87.3288 5.18842 87.2 5.51767 87.2 5.91677V6.49545H86.6749V2.87369L86.8037 2.9136C86.982 2.97346 87.2496 3.0433 87.6162 3.12312C87.9827 3.20294 88.389 3.2628 88.8348 3.31269C89.2807 3.36258 89.7067 3.38253 90.103 3.38253H99.7633C100.16 3.38253 100.586 3.36258 101.012 3.31269C101.458 3.2628 101.864 3.20294 102.24 3.12312C102.617 3.0433 102.884 2.97346 103.063 2.9136L103.191 2.87369V6.49545H102.666V5.91677C102.666 5.51767 102.547 5.1984 102.29 4.91904C102.042 4.64965 101.705 4.49999 101.269 4.49001H95.9884V19.5657C96.0082 19.9748 96.1766 20.334 96.4937 20.6333C96.8107 20.9326 97.1971 21.0823 97.643 21.0823H98.069V21.5811H91.7478H91.7577Z" fill="#55AA55"/>
<path d="M104.747 21.0816H105.262C105.728 21.0816 106.114 20.932 106.411 20.6326C106.709 20.3333 106.867 19.9741 106.887 19.5651V5.40727C106.867 4.97825 106.719 4.62905 106.411 4.3397C106.114 4.06034 105.728 3.92066 105.262 3.92066H104.747V3.42179H113.466C114.07 3.42179 114.734 3.36193 115.408 3.26216C116.091 3.15241 116.567 3.05263 116.815 2.95286L116.953 2.90297V6.53471H116.428V5.98596C116.428 5.59684 116.299 5.25762 116.052 4.97825C115.804 4.69889 115.467 4.5592 115.041 4.5592H108.987V11.9624H113.941C114.328 11.9624 114.605 11.8526 114.784 11.6231C114.972 11.3937 115.061 11.1243 115.061 10.805V10.3161H115.586V14.7061H115.061V14.2172C115.061 13.898 114.972 13.6286 114.784 13.3991C114.605 13.1696 114.328 13.0599 113.941 13.0599H108.987V20.463H113.406C114.377 20.463 115.17 20.3233 115.755 20.044C116.339 19.7646 116.825 19.3755 117.191 18.8766C117.558 18.3778 117.885 17.7991 118.162 17.1805L118.192 17.1206H118.697L116.983 21.6004H104.747V21.0816Z" fill="#55AA55"/>
<path d="M120.382 21.0816H120.897C121.362 21.0816 121.749 20.932 122.046 20.6326C122.343 20.3333 122.502 19.9741 122.522 19.5651V5.40727C122.502 4.97825 122.353 4.62905 122.046 4.3397C121.749 4.06034 121.362 3.92066 120.897 3.92066H120.382V3.42179H129.101C129.705 3.42179 130.369 3.36193 131.043 3.26216C131.726 3.15241 132.202 3.05263 132.449 2.95286L132.588 2.90297V6.53471H132.063V5.98596C132.063 5.59684 131.934 5.25762 131.687 4.97825C131.439 4.69889 131.102 4.5592 130.676 4.5592H124.622V11.9624H129.576C129.963 11.9624 130.24 11.8526 130.418 11.6231C130.607 11.3937 130.696 11.1243 130.696 10.805V10.3161H131.221V14.7061H130.696V14.2172C130.696 13.898 130.607 13.6286 130.418 13.3991C130.24 13.1696 129.963 13.0599 129.576 13.0599H124.622V20.463H129.041C130.012 20.463 130.805 20.3233 131.389 20.044C131.974 19.7646 132.459 19.3755 132.826 18.8766C133.193 18.3778 133.52 17.7991 133.797 17.1805L133.827 17.1206H134.332L132.618 21.6004H120.382V21.0816Z" fill="#55AA55"/>
<path d="M152.771 22L139.365 7.38322L139.385 19.6254C139.385 20.0344 139.534 20.3737 139.841 20.663C140.148 20.9523 140.505 21.0821 140.921 21.0821H141.525V21.5809H135.709V21.0821H136.314C136.74 21.0821 137.106 20.9424 137.403 20.663C137.701 20.3836 137.849 20.0444 137.849 19.6254V6.81451C137.849 5.80681 137.76 4.54967 137.582 3.083V2.97325H137.978L151.354 17.4802V5.37778C151.334 4.96871 151.176 4.61951 150.878 4.34014C150.581 4.06078 150.214 3.9211 149.788 3.9211H149.184V3.42223H155V3.9211H154.396C153.989 3.9211 153.623 4.06078 153.316 4.34014C153.009 4.61951 152.86 4.95874 152.86 5.37778V18.0689C152.86 18.7075 152.88 19.3161 152.919 19.9047C152.959 20.4934 153.028 21.1519 153.127 21.8902L153.147 22H152.771Z" fill="#55AA55"/>
<path d="M82.4243 22L69.0189 7.38322L69.0387 19.5256V19.6254C69.0387 20.0344 69.1873 20.3737 69.5044 20.663C69.8115 20.9523 70.1682 21.0821 70.5843 21.0821H71.1887V21.5809H65.3728V21.0821H65.9772C66.4032 21.0821 66.7698 20.9424 67.067 20.663C67.3643 20.3836 67.5129 20.0444 67.5129 19.6254V6.81451C67.5129 5.80681 67.4237 4.54967 67.2454 3.083V2.97325H67.6417L81.0174 17.4802V5.37778C80.9976 4.96871 80.8391 4.61951 80.5418 4.34014C80.2446 4.06078 79.8879 3.9211 79.452 3.9211H78.8476V3.42223H84.6635V3.9211H84.0591C83.6529 3.9211 83.2863 4.06078 82.9792 4.34014C82.672 4.61951 82.5234 4.95874 82.5234 5.37778V18.0689C82.5234 18.7075 82.5432 19.3161 82.5829 19.9047C82.6225 20.4934 82.6919 21.1519 82.7909 21.8902L82.8108 22H82.4243Z" fill="#55AA55"/>
</svg>
