<svg width="65" height="73" viewBox="0 0 65 73" fill="none" xmlns="http://www.w3.org/2000/svg">
<path d="M32.5045 73.0009C14.5822 73.0009 0 57.8187 0 39.1589C0 26.3327 6.83401 14.7598 17.8318 8.95456C17.8589 8.94513 17.8861 8.93571 17.9132 8.93571C17.9766 8.93571 18.04 8.97341 18.0762 9.03938L19.0447 11.0279C19.0447 11.0279 19.0719 11.1221 19.0538 11.1692C19.0356 11.2163 19.0085 11.254 18.9632 11.2823C8.80727 16.6352 2.49826 27.3222 2.49826 39.1589C2.49826 56.3862 15.9581 70.3905 32.4955 70.3905C49.0329 70.3905 62.4927 56.3768 62.4927 39.1589C62.4927 21.941 50.2096 9.07707 34.514 7.9933C34.4687 7.9933 34.4235 7.96502 34.3873 7.92733C34.3511 7.88963 34.342 7.84251 34.342 7.78597L34.4868 5.56187C34.4868 5.45821 34.5774 5.38281 34.6679 5.38281C34.6679 5.38281 34.6679 5.38281 34.6769 5.38281C51.676 6.5514 65 21.385 65 39.1495C65 57.8092 50.4178 72.9915 32.4955 72.9915L32.5045 73.0009Z" fill="#145FE1"/>
<path d="M38.0489 68C36.9836 68 35.9182 67.8874 34.8802 67.6715C32.7678 67.2211 30.883 66.3389 29.2622 65.0345C29.2531 65.0251 29.1985 65.0063 29.0892 65.0063C28.8889 65.0063 28.6977 65.0157 28.5064 65.0251C28.297 65.0345 28.0967 65.0533 27.8873 65.0533C27.6779 65.0533 27.4958 65.0439 27.3136 65.0157C25.5199 64.7248 23.717 63.7864 22.1236 62.9699L22.0052 62.9042C19.9656 61.8532 18.5178 60.6519 17.1611 58.9064C14.7755 55.8189 13.4917 52.7784 13.1365 49.3343C12.8088 46.1529 13.0728 42.7651 13.9105 39.2553C14.5752 36.4775 15.7771 33.9906 16.9426 31.5882C17.671 30.0867 18.4177 28.5382 19.0368 26.9241C19.656 25.31 20.0293 23.6114 20.3844 21.8565C20.5939 20.8242 20.5483 19.867 20.257 19.0036C19.9656 18.1402 19.6014 17.2956 19.2645 16.4792C18.6544 15.0246 18.0261 13.5137 17.6984 11.8714C17.3341 10.0132 17.3068 8.29589 17.6073 6.59729C17.7985 5.52746 18.1081 4.58901 18.5543 3.73503C19.0277 2.83412 19.7926 2.24289 20.603 1.67044C22.1782 0.563069 23.89 0 25.6929 0C25.9569 0 26.221 0.00938449 26.4851 0.037538C28.2606 0.197074 29.9815 0.872757 31.748 2.10213C33.1775 3.09688 34.4067 4.26056 35.4083 5.55562C36.8106 7.36682 37.7484 9.48772 38.1946 11.8526C38.5679 13.8421 38.6043 15.9255 38.3039 18.0651C38.1673 19.0036 37.9943 19.9233 37.8213 20.8523C37.6847 21.5843 37.5481 22.3257 37.4297 23.0577C37.3478 23.5926 37.3478 24.1557 37.3387 24.7V24.9064C37.3387 25.1223 37.4206 25.2255 37.6301 25.2537C38.1217 25.3287 38.6043 25.4507 39.0141 25.5633C40.908 26.0889 46.6899 28.0878 48.4108 28.9981C49.804 29.7301 50.9421 30.5371 51.8982 31.4568C54.1017 33.5871 55.1397 36.2617 54.9849 39.4055C54.9576 39.9028 54.8848 40.4378 54.7664 40.9727C54.73 41.1322 54.6936 41.2824 54.648 41.4419L54.5752 41.714C54.557 41.7891 54.5388 41.8642 54.5206 41.9487C54.4932 42.0894 54.4568 42.2302 54.4113 42.3428C54.2019 42.859 53.9833 43.3751 53.7648 43.8913C53.5736 44.3417 53.3824 44.8015 53.1912 45.2614C53.1547 45.3552 53.1456 45.4772 53.1639 45.5617C53.4643 46.8192 53.4643 47.9735 53.1547 49.0715C52.827 50.2539 52.1987 51.3519 51.2335 52.4217C51.1151 52.5531 51.0969 52.6376 51.1425 52.8441L51.1971 53.0881C51.3246 53.6511 51.4611 54.233 51.4794 54.8242C51.5158 56.1474 51.015 57.3955 49.9952 58.5498C49.5399 59.0566 49.4124 59.798 49.2941 60.5018C49.2576 60.7083 49.2212 60.9147 49.1757 61.1212C48.9389 62.2004 48.3471 63.0919 47.8008 63.8239C46.4441 65.6351 44.5502 66.8645 42.1645 67.4557C40.7623 67.8029 39.3783 67.9812 38.0398 67.9812L38.0489 68ZM29.5627 58.9158C29.4807 59.2818 29.4079 59.6384 29.3624 59.995C29.2531 60.8772 29.4079 61.8062 29.7994 62.6884C30.0635 63.2796 30.4277 64.0773 31.0833 64.3682C31.8572 64.706 32.7314 65.0908 33.5508 65.363C34.7892 65.7759 36.1277 65.9823 37.5299 65.9823C38.0853 65.9823 38.659 65.9448 39.2417 65.8885C41.1174 65.682 42.4832 65.2973 43.6669 64.6497C44.6412 64.1242 45.4425 63.4485 46.0708 62.6415C46.3894 62.2285 46.6808 61.7593 46.9176 61.2525C46.9813 61.1212 47.0632 60.971 47.1543 60.8209C47.3364 60.5018 47.5367 60.1452 47.5731 59.8636C47.5731 59.8355 47.5549 59.7604 47.5367 59.676C47.5367 59.6384 47.5185 59.6103 47.5185 59.5821C44.9599 61.3276 42.2192 62.2098 39.3692 62.2098C39.0869 62.2098 38.8046 62.2098 38.5224 62.1816C34.9258 61.9658 32.012 60.8209 29.6173 58.6906C29.5991 58.7657 29.5809 58.8407 29.5718 58.9158H29.5627ZM25.7293 2.40243C25.1375 2.40243 24.5456 2.48689 23.9629 2.65581C22.7518 3.00304 21.6774 3.66933 20.7851 4.62655C20.5574 4.87055 20.4027 5.23654 20.2843 5.565C19.7106 7.15098 19.5832 8.89649 19.8836 10.9142C20.1659 12.7535 20.7942 14.5929 21.9324 16.8827C22.7974 18.6282 23.0341 20.477 22.6153 22.3632C22.2055 24.2214 21.732 25.995 21.2039 27.6467C20.7213 29.1482 19.911 30.4245 19.1279 31.6633C18.6999 32.3296 18.2629 33.024 17.8805 33.7466C16.633 36.0927 15.7771 38.4952 15.3492 40.8882C14.9485 43.1217 14.994 45.5617 15.0851 47.4386C15.1671 49.2404 15.3127 51.1361 15.8226 52.7314C16.6968 55.5092 17.6892 57.3111 19.1461 58.7844C20.3025 59.9575 21.3587 60.7176 22.9248 61.5153C24.1359 62.1347 25.356 62.7071 26.5488 63.2327C26.9403 63.411 27.4684 63.5142 27.951 63.5142C28.1513 63.5142 28.3243 63.4954 28.4882 63.4673L28.4245 63.3078C28.3061 63.045 28.1969 62.7822 28.1058 62.5101C27.6323 61.0086 27.7598 59.5633 28.4609 58.2026C28.4973 58.1369 28.5338 58.0712 28.5702 58.0055C28.643 57.8835 28.7068 57.7709 28.7523 57.6489C28.7796 57.5832 28.7614 57.4612 28.7341 57.3955C28.2424 56.4571 28.0785 55.4717 28.2606 54.4488C28.3972 53.6417 28.7432 52.891 29.2895 52.2059C29.3988 52.0745 29.3988 52.0558 29.3168 51.915C28.7796 51.0328 28.4882 50.1132 28.4427 49.1747C28.3881 47.9923 28.7432 46.9506 29.508 46.0591L29.6719 45.8808L29.763 45.7681C29.681 45.6461 29.59 45.5242 29.508 45.4022C29.2622 45.0643 29.0072 44.7077 28.7978 44.3323C27.4958 41.9956 27.432 39.7152 28.5975 37.5473C29.7721 35.3701 31.6842 34.0469 34.2793 33.6059C34.8984 33.5026 35.5449 33.4463 36.2096 33.4463C37.1293 33.4463 38.1035 33.5402 39.1962 33.7466L39.5422 33.8123C40.0521 33.9062 40.562 34 41.0719 34.1032C41.254 34.1314 41.6 34.1783 41.5545 34.5912C41.5363 34.7789 41.4361 34.9948 41.0992 34.9948L37.9761 34.8352C37.7757 34.8258 37.5754 34.8165 37.3842 34.8165C36.3826 34.8165 35.3901 34.9384 34.4523 35.1918C32.0393 35.83 30.3275 37.5661 29.9724 39.7245C29.7539 41.0853 30.109 42.3522 31.0651 43.6003C31.839 44.6139 32.8588 45.4303 34.0972 46.0215C35.117 46.5189 36.1732 47.0257 37.2658 47.3635C38.5133 47.7483 39.8062 47.936 41.1174 47.936C42.0917 47.936 43.1024 47.8327 44.1131 47.6169C46.3348 47.1477 48.4382 46.1811 50.5324 44.6702C50.933 44.3792 51.1242 43.9569 51.3337 43.5065L51.3792 43.4126C51.8527 42.3991 52.3171 41.2917 52.4536 40.0999C52.4718 39.9685 52.4901 39.8372 52.5174 39.7152C52.5538 39.5275 52.5811 39.3304 52.5902 39.1333C52.5902 38.8049 52.5811 38.5233 52.5629 38.2512V38.0447C52.4536 36.393 51.798 34.9009 50.6143 33.6059C49.5763 32.4703 48.2743 31.5694 46.5169 30.7624C44.8779 30.0116 39.0596 27.9939 37.2021 27.6561C35.9091 27.4215 35.1989 26.5956 35.0168 25.1223C34.8711 23.9586 35.0805 22.8231 35.2809 21.7251L35.3901 21.1151C35.6815 19.4165 35.9182 17.7555 36.1095 16.3572C36.3553 14.546 35.9729 12.472 35.5995 11.0549C35.117 9.16864 34.1154 7.4419 32.6312 5.91223C31.7298 4.97378 30.7282 4.19487 29.681 3.57549C28.3152 2.77781 27.0405 2.38366 25.7657 2.38366L25.7293 2.40243ZM29.9451 52.9754C29.8358 53.1819 29.7266 53.3884 29.6446 53.6042C28.9344 55.406 29.8085 56.7386 30.6644 57.5363C31.8754 58.6718 33.4234 59.1692 34.7801 59.554C36.1732 59.9481 37.6027 60.1452 39.0232 60.1452C40.1705 60.1452 41.3451 60.0138 42.5105 59.7604C43.7125 59.4977 44.9053 59.066 46.1527 58.4466C46.262 58.3903 46.3894 58.3434 46.5078 58.3058C46.6717 58.2495 46.8265 58.1932 46.954 58.1088L47.4457 57.7615C48.0284 57.3486 48.6294 56.9263 49.112 56.4195C49.977 55.5092 50.2319 54.4488 49.8677 53.332C49.6036 53.4634 49.3396 53.6042 49.0846 53.7356C48.4017 54.0922 47.6915 54.4582 46.9722 54.7585C44.4955 55.8002 41.9915 56.3445 39.5149 56.3726H39.3145C37.3205 56.3726 35.3082 55.9691 33.3414 55.1808C31.9574 54.6177 30.883 53.8857 30.0544 52.9191C30.0453 52.9004 30.027 52.891 30.0088 52.8816L29.9542 52.9848L29.9451 52.9754ZM30.4823 46.4814C29.3624 47.8234 29.4079 49.5689 30.6007 51.1736C31.3382 52.159 32.3853 52.891 33.7967 53.4071C35.4174 53.9983 37.1657 54.2893 39.1324 54.2893H39.4056C42.4468 54.2423 45.4243 53.5854 48.511 52.2716C48.6294 52.2247 48.7477 52.159 48.8661 52.1027C49.0937 51.9994 49.3123 51.8868 49.549 51.8118C50.0498 51.6522 50.4231 51.305 50.7965 50.6575C51.1607 50.0193 51.5795 49.1559 51.534 48.1518C51.5067 47.5794 51.4065 47.1383 51.2153 46.7535L50.6599 47.0726C50.1409 47.3729 49.631 47.6638 49.112 47.936C46.872 49.0903 44.4955 49.7472 42.0553 49.8973C41.5909 49.9255 41.1265 49.9349 40.653 49.9349C39.8609 49.9349 39.0505 49.8973 38.2401 49.8129C36.592 49.6533 35.035 49.2216 33.6055 48.5366C32.2943 47.9078 31.2927 47.2509 30.4641 46.472L30.4823 46.4814Z" fill="#145FE1"/>
<path d="M28.6756 17.0293C28.2502 17.0293 27.8066 16.9539 27.3631 16.8125C25.2722 16.1246 23.3623 13.8533 22.9187 11.535C22.62 9.95175 22.792 7.63341 24.2855 6.32346C25.5166 5.23968 27.2907 5.04178 28.6937 5.84283C30.0424 6.60618 31.6083 8.18001 32.0609 9.96117C32.3234 10.9884 32.1876 11.9874 31.6626 12.8544C30.8027 14.2868 28.9562 14.89 27.3631 14.2586C25.5799 13.5518 24.711 11.5444 25.3446 9.60306C25.6885 8.52871 26.5847 7.38839 27.9515 7.67111C29.3364 7.96326 30.6308 9.25436 30.3049 11.0732C30.2144 11.5539 29.979 11.9497 29.6441 12.1853C29.3183 12.4209 28.9109 12.4774 28.4946 12.3549C28.0148 12.2135 27.5984 11.8554 27.4084 11.4031C27.1097 10.7057 27.3269 9.84808 27.9153 9.40515C28.1234 9.25436 28.404 9.30148 28.5489 9.50882C28.6937 9.71615 28.6484 10.0177 28.4493 10.1685C28.2049 10.3476 28.1144 10.7245 28.2321 11.0073C28.3135 11.2052 28.5217 11.3748 28.739 11.4408C28.8476 11.469 29.0015 11.4879 29.1282 11.3936C29.264 11.2994 29.3635 11.1109 29.4088 10.8753C29.6351 9.63133 28.7571 8.78316 27.7704 8.57583C26.7295 8.35907 26.2497 9.72557 26.2045 9.88578C25.7881 11.158 26.1683 12.7601 27.689 13.3633C28.8838 13.8345 30.2687 13.401 30.9023 12.3361C31.2915 11.6858 31.3911 10.9601 31.192 10.1779C30.8118 8.66064 29.445 7.31299 28.2683 6.64388C27.2092 6.04074 25.8153 6.19152 24.8739 7.02085C23.6881 8.06692 23.5614 9.99887 23.8149 11.3371C24.186 13.3162 25.8696 15.3235 27.6437 15.8984C28.4855 16.1717 29.7256 16.2565 30.9023 15.0785C31.0833 14.8994 31.373 14.9088 31.545 15.0879C31.717 15.2764 31.7079 15.578 31.5359 15.757C30.7122 16.5863 29.7256 17.0104 28.6846 17.0104L28.6756 17.0293Z" fill="#145FE1"/>
</svg>
