<svg width="105" height="50" viewBox="0 0 105 50" fill="none" xmlns="http://www.w3.org/2000/svg">
<path d="M105 0H0V50H105V0Z" fill="#00460A"/>
<path d="M17.0107 27.5186C17.635 27.5186 18.2337 27.5913 18.793 27.7285C19.352 27.8657 19.8786 28.0549 20.3662 28.29C20.8541 28.5254 21.3037 28.794 21.707 29.0947L20.7119 30.9053C20.5818 30.7615 20.3926 30.6048 20.1455 30.4414C19.8983 30.278 19.6058 30.1204 19.2676 29.9766C18.9228 29.8327 18.5582 29.7155 18.168 29.624C17.7714 29.5326 17.3683 29.4864 16.9521 29.4863C16.0415 29.4863 15.3583 29.6571 14.916 29.9971C14.4739 30.3369 14.2521 30.807 14.252 31.4082C14.252 31.8526 14.3761 32.1992 14.623 32.4541C14.8767 32.7091 15.2544 32.9189 15.7617 33.0889C16.269 33.2588 16.9133 33.4416 17.6807 33.6377C18.6172 33.8599 19.4366 34.1215 20.126 34.4287V34.4551C20.822 34.7623 21.3486 35.1678 21.7129 35.6777C22.0771 36.1876 22.2598 36.8606 22.2598 37.6973C22.2598 38.4033 22.1293 39.0116 21.8691 39.5215C21.6025 40.0313 21.2378 40.4434 20.7695 40.7637C20.3013 41.0838 19.7548 41.3194 19.1436 41.4697C18.5322 41.6135 17.8554 41.6914 17.166 41.6914C16.4767 41.6914 15.7873 41.6194 15.1045 41.4756C14.4215 41.3318 13.7644 41.116 13.1465 40.835C12.5286 40.5539 11.9559 40.208 11.4355 39.8027L12.4307 37.9131C12.5998 38.0831 12.8473 38.2729 13.166 38.4756C13.4912 38.6782 13.8624 38.8736 14.2852 39.0566C14.7144 39.2397 15.1759 39.3973 15.6768 39.5215C16.1776 39.6457 16.6916 39.7109 17.2119 39.7109C18.0835 39.7109 18.754 39.5602 19.2158 39.2529C19.6774 38.9457 19.9111 38.5077 19.9111 37.9326C19.9111 37.4621 19.762 37.0828 19.4629 36.8018C19.1572 36.5207 18.7208 36.2791 18.1484 36.083C17.5761 35.8869 16.8863 35.6902 16.0928 35.4941C15.1823 35.2458 14.415 34.9709 13.8037 34.6768C13.1925 34.3827 12.7305 34.004 12.4248 33.54C12.1191 33.0759 11.9629 32.4808 11.9629 31.7617C11.9629 30.8466 12.1838 30.0686 12.626 29.4346C13.0683 28.8005 13.6736 28.3233 14.4346 28.0029C15.2021 27.6826 16.0611 27.5186 17.0107 27.5186ZM74.374 27.5186C74.9984 27.5186 75.5969 27.5912 76.1562 27.7285C76.7156 27.8658 77.2427 28.0547 77.7305 28.29C78.2183 28.5254 78.667 28.794 79.0703 29.0947L78.0752 30.9053C77.9451 30.7615 77.756 30.6048 77.5088 30.4414C77.2616 30.278 76.9691 30.1204 76.6309 29.9766C76.2863 29.8329 75.9222 29.7155 75.5322 29.624C75.1355 29.5325 74.7317 29.4863 74.3154 29.4863C73.4048 29.4863 72.7216 29.6571 72.2793 29.9971C71.8373 30.3369 71.6163 30.8071 71.6162 31.4082C71.6162 31.8525 71.7394 32.1992 71.9863 32.4541C72.24 32.7091 72.6176 32.9189 73.125 33.0889C73.6324 33.2588 74.2764 33.4416 75.0439 33.6377C75.9804 33.8599 76.7998 34.1215 77.4893 34.4287V34.4551C78.1852 34.7623 78.7129 35.1678 79.0771 35.6777C79.4412 36.1876 79.623 36.8608 79.623 37.6973C79.623 38.4033 79.4926 39.0116 79.2324 39.5215C78.9658 40.0312 78.602 40.4434 78.1338 40.7637C77.6655 41.0839 77.1191 41.3194 76.5078 41.4697C75.8965 41.6135 75.2197 41.6914 74.5303 41.6914C73.8408 41.6914 73.1508 41.6194 72.4678 41.4756C71.7849 41.3318 71.1276 41.116 70.5098 40.835C69.8922 40.554 69.3199 40.2078 68.7998 39.8027L69.7949 37.9131C69.964 38.083 70.2107 38.273 70.5293 38.4756C70.8545 38.6782 71.2257 38.8736 71.6484 39.0566C72.0776 39.2396 72.5393 39.3973 73.04 39.5215C73.5408 39.6457 74.055 39.7109 74.5752 39.7109C75.4468 39.7109 76.1173 39.5602 76.5791 39.2529C77.0408 38.9457 77.2754 38.5078 77.2754 37.9326C77.2754 37.462 77.1254 37.0828 76.8262 36.8018C76.5206 36.5207 76.0848 36.2791 75.5127 36.083C74.9403 35.8869 74.2505 35.6902 73.457 35.4941C72.5464 35.2457 71.7784 34.9709 71.167 34.6768C70.5558 34.3826 70.0937 34.004 69.7881 33.54C69.4824 33.0759 69.3262 32.4808 69.3262 31.7617C69.3262 30.8465 69.5479 30.0687 69.9902 29.4346C70.4325 28.8006 71.037 28.3232 71.7979 28.0029C72.5654 27.6826 73.4244 27.5186 74.374 27.5186ZM88.0527 27.5117C89.0479 27.5117 89.9526 27.7148 90.7656 28.1201C91.5786 28.5254 92.2815 29.0741 92.8604 29.7539L92.8535 29.7607C93.4388 30.4405 93.8873 31.2054 94.2061 32.042C94.5248 32.8787 94.6875 33.7422 94.6875 34.6182C94.6875 35.5529 94.5182 36.442 94.1865 37.2852C93.8548 38.1284 93.3865 38.8867 92.7881 39.5469C92.1897 40.2071 91.481 40.7302 90.668 41.1094C89.8484 41.4885 88.9633 41.6777 88.0137 41.6777C87.0121 41.6777 86.1014 41.482 85.2949 41.0898C84.4884 40.6976 83.7856 40.1616 83.2002 39.4883C82.6149 38.815 82.1595 38.0502 81.8408 37.207C81.5221 36.3573 81.3594 35.5333 81.3594 34.5986C81.3594 33.6638 81.529 32.774 81.8672 31.9307C82.2054 31.0875 82.68 30.3291 83.2783 29.6689C83.8767 29.0022 84.5863 28.4794 85.3994 28.0938C86.2188 27.7082 87.0578 27.5118 88.0527 27.5117ZM28.1006 41.5801H25.9082V27.6104H28.1006V41.5801ZM52.1348 41.5801H46.4365L49.2861 36.625L52.1348 41.5801ZM88.04 29.5186C87.3376 29.5186 86.7065 29.6626 86.1602 29.9502C85.6073 30.2444 85.1458 30.6305 84.7686 31.1143C84.3913 31.598 84.0981 32.1467 83.8965 32.748C83.6948 33.3495 83.5908 33.9449 83.5908 34.5986C83.5909 35.2522 83.6953 35.8925 83.9033 36.5068C84.1114 37.1211 84.4103 37.6704 84.7939 38.1475C85.1777 38.6246 85.646 39.0047 86.1924 39.2793C86.7387 39.5538 87.3309 39.6904 88.0332 39.6904C88.7357 39.6904 89.3667 39.5464 89.9131 39.2588C90.4595 38.9712 90.9212 38.5792 91.292 38.0889C91.6627 37.5987 91.9494 37.0434 92.1445 36.4355L92.1514 36.4287C92.3465 35.8208 92.4434 35.2062 92.4434 34.5918C92.4434 33.9382 92.3393 33.3042 92.1377 32.6963C91.9361 32.0818 91.6373 31.5387 91.2471 31.0615C90.8569 30.5844 90.3884 30.2052 89.8486 29.9307C89.3088 29.6561 88.7035 29.5186 88.04 29.5186ZM66.042 35.5791H32.5371V33.6113H66.042V35.5791ZM55.2568 13.876C55.2568 14.5166 55.3221 15.1376 55.4521 15.7324C55.5822 16.3273 55.7909 16.8633 56.0771 17.334C56.3633 17.8112 56.7534 18.1844 57.2412 18.459C57.7289 18.7334 58.3207 18.8701 59.0488 18.8701C59.7773 18.8701 60.3891 18.7264 60.877 18.4453C61.3713 18.1577 61.7555 17.7789 62.0352 17.3018C62.3148 16.8247 62.5222 16.2884 62.6523 15.7002C62.7824 15.1119 62.8477 14.4967 62.8477 13.8691V6.79004H65.0596V13.876C65.0596 14.8368 64.9424 15.7388 64.7148 16.582C64.4807 17.4253 64.1291 18.1706 63.6543 18.8047C63.1795 19.4387 62.562 19.9425 61.8076 20.3086C61.0531 20.6747 60.1611 20.8574 59.0488 20.8574C57.9367 20.8574 57.0002 20.6682 56.2393 20.2891C55.4718 19.9099 54.8602 19.387 54.3984 18.7334L54.4053 18.7266C53.9435 18.0729 53.6053 17.3211 53.3906 16.4844C53.176 15.6476 53.0654 14.7713 53.0654 13.8691V6.79004H55.2568V13.876ZM17.3164 6.69141C18.6365 6.69147 19.7484 6.97283 20.6523 7.52832C21.5565 8.0905 22.24 8.82897 22.6953 9.74414L21.0107 10.9668C20.6465 10.202 20.126 9.63306 19.4561 9.25391C18.7796 8.87476 18.0445 8.68556 17.251 8.68555C16.5941 8.68555 16.0021 8.8222 15.4688 9.09668C14.9355 9.37117 14.4736 9.75049 14.0898 10.2275C13.7061 10.7048 13.4129 11.2543 13.2178 11.8623C13.0227 12.4701 12.9258 13.1107 12.9258 13.7773C12.9258 14.4832 13.0358 15.1503 13.2568 15.7646C13.4779 16.3789 13.7903 16.9217 14.1934 17.3857C14.5966 17.8499 15.0786 18.2161 15.625 18.4775C16.1714 18.739 16.7698 18.8701 17.4072 18.8701C18.1682 18.8701 18.8903 18.6737 19.5732 18.2881C20.1781 17.9416 20.7444 17.4511 21.2842 16.8105V15.3271H18.3701V13.6924H23.125V20.7529H21.2842V19.0205C20.1199 20.2429 18.7665 20.8506 17.2314 20.8506C16.3209 20.8506 15.4624 20.6613 14.6689 20.2822C13.8754 19.9031 13.1788 19.3738 12.5869 18.707C11.9885 18.0402 11.527 17.2746 11.1953 16.4248C10.8637 15.5751 10.6943 14.6662 10.6943 13.7119C10.6944 12.7576 10.8636 11.8552 11.1953 11.0186C11.527 10.182 11.9951 9.42997 12.5869 8.77637C13.1788 8.11616 13.8816 7.6063 14.6816 7.24023C15.4882 6.87419 16.3668 6.69141 17.3164 6.69141ZM44.3428 6.69141C45.3378 6.69147 46.2417 6.89456 47.0547 7.2998C47.8677 7.7051 48.5705 8.25377 49.1494 8.93359C49.7347 9.61336 50.1832 10.3782 50.502 11.2148C50.8207 12.0516 50.9834 12.915 50.9834 13.791C50.9834 14.7257 50.8141 15.6148 50.4824 16.458C50.1507 17.3012 49.6824 18.0595 49.084 18.7197C48.4791 19.3799 47.7701 19.9031 46.957 20.2822C46.1376 20.6613 45.2532 20.8505 44.3037 20.8506C43.302 20.8506 42.3905 20.6549 41.584 20.2627C40.7776 19.8705 40.0755 19.3343 39.4902 18.6611V18.667C38.9049 17.9937 38.4496 17.229 38.1309 16.3857C37.8122 15.536 37.6494 14.7121 37.6494 13.7773C37.6495 12.8427 37.8181 11.9535 38.1562 11.1104C38.4945 10.2671 38.97 9.50887 39.5684 8.84863C40.1667 8.18196 40.8755 7.65909 41.6885 7.27344C42.508 6.88775 43.3476 6.69141 44.3428 6.69141ZM31.6777 6.79004C32.302 6.79004 32.8811 6.92028 33.4014 7.18164C33.9216 7.44958 34.377 7.79627 34.7607 8.22754C35.1445 8.66553 35.4445 9.1495 35.6592 9.68555C35.8738 10.2281 35.9844 10.7777 35.9844 11.3398C35.9843 11.9542 35.8735 12.5492 35.6523 13.1113C35.4312 13.68 35.1119 14.1641 34.7021 14.5693C34.2925 14.9744 33.8108 15.2682 33.2646 15.4512L36.5371 20.7598H34.0654L31.0537 15.9023H27.8203V20.7598H25.6289V6.79004H31.6777ZM77.6396 16.8828V6.80957H79.8506V20.7598H77.9385L70.165 10.8818V20.7598H67.9736V6.79004H69.7754L77.6396 16.8828ZM84.2998 6.78223C84.5209 7.54694 84.8071 8.44285 85.1777 9.41016V18.8047H87.916C88.8982 18.8047 89.7246 18.5822 90.3945 18.1377C90.4205 18.1181 90.4399 18.098 90.4658 18.085C90.9667 18.5948 91.5005 19.0789 92.0664 19.5234C91.8843 19.6542 91.6951 19.7785 91.5 19.8896C90.4789 20.4648 89.2883 20.7529 87.916 20.7529H82.9863V6.78223H84.2998ZM87.916 6.79004C89.4185 6.79004 90.6676 7.10363 91.6758 7.72461C92.6839 8.34561 93.4386 9.1888 93.9395 10.2412C94.4403 11.2937 94.6943 12.4641 94.6943 13.752C94.6943 15.1704 94.4142 16.4062 93.8613 17.4521C93.6598 17.8375 93.426 18.1838 93.166 18.5039C92.5807 18.0594 92.0337 17.5698 91.5264 17.0469C91.6825 16.8246 91.8194 16.5889 91.9365 16.334C92.2877 15.5758 92.4628 14.7456 92.4629 13.7588C92.4629 12.7718 92.2805 11.9021 91.9229 11.1504C91.5651 10.3921 91.0449 9.80381 90.375 9.37891C89.6985 8.95399 88.8787 8.7373 87.916 8.7373H86.5176C86.251 8.03811 86.0297 7.37818 85.8477 6.79004H87.916ZM44.3291 8.69141C43.6267 8.69144 42.9955 8.83544 42.4492 9.12305C41.8964 9.41721 41.4348 9.80341 41.0576 10.2871C40.6804 10.7708 40.3872 11.3196 40.1855 11.9209L40.1924 11.9082C39.9908 12.5095 39.8867 13.1304 39.8867 13.7578C39.8867 14.0324 39.9063 14.3072 39.9453 14.5752C39.9713 14.1177 40.0692 13.68 40.2383 13.2617C40.4399 12.7584 40.7262 12.3004 41.084 11.9082C41.4482 11.503 41.8837 11.1826 42.3779 10.9473C42.8788 10.7119 43.4062 10.5879 44.0176 10.5879C44.6288 10.588 45.1949 10.7187 45.7021 10.9736C46.1963 11.222 46.6323 11.5554 46.9834 11.9736C47.328 12.3789 47.6014 12.8363 47.79 13.333C47.9786 13.8363 48.0761 14.3593 48.0762 14.8887C48.0762 15.4509 47.978 15.9872 47.7764 16.4971C47.5813 17.0003 47.2952 17.4577 46.9375 17.8564C46.8204 17.9872 46.6906 18.1057 46.5605 18.2168C46.9572 17.9554 47.3017 17.6414 47.5879 17.2559C47.9586 16.7656 48.2453 16.2095 48.4404 15.6016C48.6356 14.9936 48.7334 14.3791 48.7334 13.7646C48.7334 13.111 48.6284 12.4771 48.4268 11.8691C48.2251 11.2546 47.9264 10.7116 47.5361 10.2344C47.1459 9.75721 46.6775 9.37806 46.1377 9.10352C45.5978 8.82896 44.9926 8.69141 44.3291 8.69141ZM44.0107 12.0654C43.6401 12.0654 43.3083 12.1368 42.9961 12.2871C42.6774 12.444 42.4038 12.6467 42.1631 12.9082C41.9225 13.1761 41.7342 13.4834 41.5977 13.8232C41.4611 14.1566 41.3955 14.5233 41.3955 14.8828C41.3956 15.2422 41.4608 15.5889 41.5908 15.9287C41.7144 16.2685 41.9036 16.5826 42.1377 16.8506C42.3652 17.1183 42.6317 17.3208 42.9502 17.4775C43.2559 17.6279 43.5944 17.7002 43.9912 17.7002C44.3684 17.7002 44.7005 17.6282 45.0127 17.4844C45.3377 17.3341 45.6107 17.1314 45.8447 16.8701L45.8389 16.8564C46.0728 16.5951 46.2674 16.2879 46.3975 15.9482C46.534 15.6084 46.5996 15.2618 46.5996 14.8828C46.5996 14.5365 46.5411 14.1897 46.4111 13.8564C46.281 13.5165 46.0984 13.2023 45.8643 12.9277C45.6367 12.6598 45.37 12.4573 45.0449 12.2939C44.7327 12.1371 44.3815 12.0654 44.0107 12.0654ZM27.8203 13.9541H31.6582C32.068 13.9541 32.4261 13.8369 32.7383 13.6016C33.0504 13.3663 33.2974 13.046 33.4795 12.6475C33.6616 12.2488 33.7529 11.8235 33.7529 11.3398C33.7529 10.8561 33.6486 10.4179 33.4404 10.0322C33.2324 9.64669 32.9595 9.33296 32.6279 9.09766C32.2962 8.86232 31.9313 8.74414 31.541 8.74414H27.8203V13.9541Z" fill="white"/>
</svg>
