<svg width="75" height="75" viewBox="0 0 75 75" fill="none" xmlns="http://www.w3.org/2000/svg">
<path d="M37.5 75C58.2107 75 75 58.2107 75 37.5C75 16.7893 58.2107 0 37.5 0C16.7893 0 0 16.7893 0 37.5C0 58.2107 16.7893 75 37.5 75Z" fill="#FA8232"/>
<path d="M24.9214 67.0647C24.7248 67.0129 24.6059 66.775 24.6059 66.775C24.6059 66.775 23.7886 65.425 24.6059 59.1819C20.9334 58.6698 15.9783 58.7526 15.9783 57.6612C15.9783 56.8026 16.2628 56.125 17.5145 56.125H20.5507C23.8455 56.125 28.9093 56.3784 35.7524 56.8905C35.7524 56.8905 36.8386 57.0405 36.8386 57.5526C36.8386 58.0647 35.7524 58.406 35.7524 58.406C35.7524 58.406 33.0783 59.4974 27.6628 59.1716C27.6628 64.2353 27.4455 65.9216 25.5162 66.9819C25.33 67.0905 25.1231 67.1112 24.9214 67.0543V67.0647Z" fill="white"/>
<path d="M58.2057 57.9928C55.9454 58.5669 53.1833 58.8566 51.4557 58.8566L52.2264 64.3962C52.2264 65.5341 51.6574 66.1031 50.5195 66.1031C49.5833 66.1031 48.7299 63.6876 47.9695 59.6997C42.2695 59.6997 39.1868 59.2186 39.4195 57.9928C39.9471 55.8876 42.9885 56.2859 44.5402 56.2859H58.2109C58.2109 56.2859 58.9919 56.2704 59.0281 57.0462C59.0643 57.8273 58.2109 57.9928 58.2109 57.9928H58.2057Z" fill="white"/>
<path d="M32.3646 42.5525C32.3646 42.5525 31.1542 41.0267 28.537 41.0836C23.9077 41.0836 23.0335 41.2646 21.6111 44.0629C21.6111 44.0629 21.0732 45.7491 21.1146 47.0267C21.1146 51.4232 22.8784 53.3163 26.6542 53.3163C30.4301 53.3163 32.6128 50.8077 33.2491 45.7957C33.4249 43.5922 32.3646 42.5525 32.3646 42.5525ZM30.4715 46.437C30.1301 49.1525 28.9404 50.5129 26.9025 50.5129C24.8646 50.5129 23.9025 49.4888 23.9025 47.1043C23.8818 46.4112 24.1715 45.4957 24.1715 45.4957C24.9422 43.9801 25.4129 43.8819 27.9215 43.8819C29.3387 43.8508 29.9956 44.6784 29.9956 44.6784C29.9956 44.6784 30.5697 45.237 30.4766 46.4319L30.4715 46.437Z" fill="white"/>
<path d="M52.5831 41.1923C49.128 41.6888 47.2297 41.244 45.1349 41.244C45.1349 41.244 43.6142 41.0216 43.2107 41.6423C43.2107 41.6423 42.8176 41.6061 42.8176 45.3095V51.3561C42.8176 52.375 43.3194 52.8819 44.328 52.8819H49.5521C53.2711 52.8819 55.2883 52.5405 55.5987 51.025V43.4474C55.5987 42.6923 54.5125 40.6698 52.5728 41.1871L52.5831 41.1923ZM52.8107 49.2612C52.6349 50.1147 51.5021 50.3061 49.4073 50.3061H46.4693C45.9004 50.3061 45.6211 50.0216 45.6211 49.4474V46.044C45.6211 43.9647 45.8435 43.9854 45.8435 43.9854C46.0659 43.6336 46.9245 43.763 46.9245 43.763C48.1038 43.763 49.1694 44.0164 51.1142 43.7319C52.2056 43.4423 52.8159 44.5802 52.8159 45.0043V49.2664L52.8107 49.2612Z" fill="white"/>
<path d="M38.188 16.0139C39.9569 15.957 41.5914 15.6984 43.0242 14.995C43.4121 14.8036 43.7794 14.5657 44.1569 14.3122C44.8397 13.7225 45.5276 13.0605 45.5121 12.207C45.7087 12.5691 45.8794 13.0088 45.9466 13.5622C46.0087 13.9501 45.9776 13.9501 46.0449 14.3381C46.2518 15.5588 46.2776 16.8467 46.438 18.0725C46.738 20.4053 47.219 22.7794 47.8345 25.1484C47.8345 25.1484 48.1294 25.8932 47.4363 26.8243C46.6914 27.8174 44.8604 28.3967 42.6931 28.8622C41.1518 29.1932 39.388 29.5553 37.5156 29.5553C35.3897 29.5553 33.3673 29.307 31.7018 28.8881C28.9759 28.2001 27.1345 26.9536 27.1345 25.676C27.1345 25.5208 27.1087 25.2105 27.1759 25.0191C27.4604 23.8708 27.8276 22.8001 28.0707 21.6519C28.1483 21.2743 28.2569 20.695 28.319 20.3225C28.5259 19.076 28.7173 18.176 28.8569 16.5984C28.8776 16.3657 28.8776 16.0967 28.888 15.8639C28.919 15.3674 29.0225 14.9846 29.069 14.6225C29.0845 13.795 29.2914 13.1381 29.6173 12.6053C29.819 14.0277 31.0604 14.7829 32.5811 15.2691C34.0707 15.745 35.7518 15.9725 37.1535 16.0294L38.1725 16.0139H38.188Z" fill="#FFE178"/>
<path d="M41.1156 25.9761C41.0691 26.0227 41.007 26.0485 40.9501 26.0744C40.7484 26.1571 40.5415 26.2347 40.3294 26.2916C40.2622 26.3123 39.8018 26.3847 39.8018 26.4002C39.8846 26.0744 39.9622 25.7485 40.0449 25.4227C40.0863 25.252 40.1277 25.0658 40.0656 24.9002C40.0036 24.7347 39.7915 24.6158 39.6415 24.714C39.5277 24.7916 39.507 24.952 39.5018 25.0916C39.4708 25.5726 39.3984 26.0485 39.2846 26.514C39.2225 26.7623 38.0846 26.6537 38.0329 26.452C38.0018 26.3382 38.0587 26.152 38.0949 26.0433C38.2967 25.4175 38.5863 24.7709 39.1036 24.2485C39.3518 24.0002 39.7398 23.8295 40.0708 23.783C40.4949 23.7261 40.8156 24.1089 40.9605 24.4813C41.0587 24.7295 41.1156 24.9933 41.1518 25.2571C41.1777 25.4537 41.2863 25.8106 41.126 25.9761H41.1156Z" fill="#FF918C"/>
<path d="M30.6203 10.6432C31.9496 9.09666 35.441 8.68804 36.4754 8.6208C36.4754 8.6208 37.4634 8.61045 37.7272 8.64149C40.5099 8.93631 43.2513 9.17942 44.9427 11.538C45.0617 11.7036 45.1134 11.8794 45.1134 12.0553C45.1134 12.0553 45.2065 12.6087 43.8048 13.8449C43.5048 14.1087 43.1582 14.3415 42.791 14.5173C41.4254 15.1898 39.853 15.5363 38.1617 15.588C37.8461 15.5984 37.5927 15.5984 37.2823 15.588C34.6341 15.3449 30.1082 14.9156 30.1082 12.1639C30.0565 11.5898 30.2323 11.0829 30.6203 10.638V10.6432Z" fill="#FFB478"/>
<path d="M48.3248 25.0073C47.7196 22.6797 47.3213 20.3108 47.0213 18.0039C46.861 16.7729 46.7731 15.4901 46.5662 14.2539C46.4989 13.8763 46.5196 13.7625 46.4369 13.3953C46.1524 12.1591 45.7231 11.4039 45.1955 10.8763C43.6075 8.79699 40.8817 8.30044 37.7317 8.17113C31.7317 7.91768 30.2317 10.3125 30.2317 10.3125C29.9058 10.6901 29.7041 11.1091 29.6265 11.5539C28.9075 12.2573 28.4989 13.3125 28.4782 14.5901C28.4369 14.9366 28.5248 15.3194 28.4937 15.8263C28.4782 16.0591 28.4782 16.297 28.4627 16.5349C28.4627 16.5349 27.7075 21.2573 27.6248 21.6246C27.3765 22.7625 26.9317 23.8435 26.6575 24.9608C26.5748 25.1832 26.5386 25.4677 26.5386 25.6901C26.5386 27.1901 28.4989 28.3953 31.3489 29.1711C33.0972 29.647 35.2024 30.0298 37.5248 30.0298C39.4748 30.0298 41.3472 29.8953 42.961 29.5332C45.1955 29.0315 46.9541 28.1625 47.8231 27.1642C48.2265 26.6987 48.4696 26.1918 48.4696 25.6901C48.4696 25.4729 48.4179 25.2401 48.33 25.0229L48.3248 25.0073ZM30.6196 10.6435C31.9489 9.09699 35.4403 8.68837 36.4748 8.62113C36.4748 8.62113 37.4627 8.61078 37.7265 8.64182C40.5093 8.93665 43.2506 9.17975 44.942 11.5384C45.061 11.7039 45.1127 11.8797 45.1127 12.0556C45.1127 12.0556 45.2058 12.6091 43.8041 13.8453C43.5041 14.1091 43.1575 14.3418 42.7903 14.5177C41.4248 15.1901 39.8524 15.5366 38.161 15.5884C37.8455 15.5987 37.592 15.5987 37.2817 15.5884C34.6334 15.3453 30.1075 14.916 30.1075 12.1642C30.0558 11.5901 30.2317 11.0832 30.6196 10.6384V10.6435ZM38.1869 16.0177C39.9558 15.9608 41.5903 15.7022 43.0231 14.9987C43.411 14.8073 43.7782 14.5694 44.1558 14.316C44.8386 13.7263 45.5265 13.0642 45.511 12.2108C45.7075 12.5729 45.8782 13.0125 45.9455 13.566C46.0075 13.9539 45.9765 13.9539 46.0437 14.3418C46.2506 15.5625 46.2765 16.8504 46.4369 18.0763C46.7369 20.4091 47.2179 22.7832 47.8334 25.1522C47.8334 25.1522 48.1282 25.897 47.4351 26.828C46.6903 27.8211 44.8593 28.4004 42.692 28.866C41.1506 29.197 39.3868 29.5591 37.5144 29.5591C35.3886 29.5591 33.3662 29.3108 31.7006 28.8918C28.9748 28.2039 27.1334 26.9573 27.1334 25.6798C27.1334 25.5246 27.1075 25.2142 27.1748 25.0229C27.4593 23.8746 27.8265 22.8039 28.0696 21.6556C28.1472 21.278 28.2558 20.6987 28.3179 20.3263C28.5248 19.0797 28.7162 18.1797 28.8558 16.6022C28.8765 16.3694 28.8765 16.1004 28.8868 15.8677C28.9179 15.3711 29.0213 14.9884 29.0679 14.6263C29.0834 13.7987 29.2903 13.1418 29.6162 12.6091C29.8179 14.0315 31.0593 14.7866 32.58 15.2729C34.0696 15.7487 35.7506 15.9763 37.1524 16.0332L38.1713 16.0177H38.1869Z" fill="#1A1A1A"/>
<path d="M43.1425 24.6675C42.5891 24.6882 42.3563 24.445 42.3201 24.4192C42.1391 24.2847 42.1029 24.1709 41.9787 24.2433C41.896 24.2899 41.8753 24.4451 41.9012 24.5433C41.927 24.6468 42.0822 24.7088 42.1546 24.7709L42.2477 24.833C42.2374 24.9106 42.196 24.9882 42.1598 25.0502C42.0408 25.2468 41.8856 25.4175 41.6994 25.5623C41.6736 25.0502 41.6167 24.5278 41.3891 24.0726C41.1615 23.6278 40.7322 23.2502 40.2149 23.2244C39.6667 23.1933 39.1701 23.5916 38.8029 23.9588C38.2029 24.564 37.8512 25.1795 37.6339 25.8364C37.5615 26.0588 37.5201 26.3795 37.4529 26.6847C36.3822 26.6692 35.5391 26.4882 34.9029 26.3123C33.3305 25.8778 32.9012 25.1278 32.8184 24.9468C32.8805 24.8847 33.0201 24.8071 33.0305 24.714C33.046 24.6261 33.0098 24.4813 32.9322 24.445C32.8081 24.383 32.7874 24.4968 32.627 24.6364C32.6012 24.6623 32.4046 24.9054 31.8874 24.9364C31.727 24.9468 31.7994 25.3399 32.0218 25.3399C32.1046 25.3399 32.1822 25.2985 32.2649 25.2778C32.2805 25.2778 32.3012 25.2675 32.3218 25.2778C32.3425 25.283 32.3581 25.2985 32.3736 25.314C33.0512 25.9864 33.7649 26.5192 34.7012 26.7778C35.4305 26.9795 36.4029 27.1916 37.6236 27.1916C38.6115 27.1916 39.6253 27.083 40.5667 26.7778C41.4356 26.4985 42.2684 25.9657 42.6563 25.1175C42.6718 25.1019 42.6822 25.0864 42.7029 25.0761C42.7236 25.0709 42.7443 25.0761 42.7598 25.0761C42.8477 25.0916 42.9356 25.1226 43.0287 25.1175C43.2667 25.0968 43.3029 24.6675 43.1322 24.6726L43.1425 24.6675ZM41.1149 25.9761C41.0684 26.0226 41.0063 26.0485 40.9494 26.0744C40.7477 26.1571 40.5408 26.2347 40.3287 26.2916C40.2615 26.3123 39.8012 26.3847 39.8012 26.4002C39.8839 26.0744 39.9615 25.7485 40.0443 25.4226C40.0856 25.2519 40.127 25.0657 40.0649 24.9002C40.0029 24.7347 39.7908 24.6157 39.6408 24.714C39.527 24.7916 39.5063 24.9519 39.5012 25.0916C39.4701 25.5726 39.3977 26.0485 39.2839 26.514C39.2218 26.7623 38.0839 26.6537 38.0322 26.4519C38.0012 26.3382 38.0581 26.1519 38.0943 26.0433C38.296 25.4175 38.5856 24.7709 39.1029 24.2485C39.3512 24.0002 39.7391 23.8295 40.0701 23.783C40.4943 23.7261 40.815 24.1088 40.9598 24.4813C41.0581 24.7295 41.1149 24.9933 41.1512 25.2571C41.177 25.4537 41.2856 25.8106 41.1253 25.9761H41.1149Z" fill="#1A1A1A"/>
<path d="M39.1038 22.4533C39.021 22.4533 39.0107 22.4067 39.0055 22.4015L38.7572 20.3171C38.7572 20.3171 38.7469 20.286 38.7262 20.2757C38.7158 20.2757 38.7107 20.2705 38.7003 20.2705C38.69 20.2705 38.6848 20.2705 38.6745 20.2757C38.5762 20.3222 38.3538 20.6636 37.8365 21.4964L37.8158 21.5119H37.6555C37.3193 21.155 36.9727 20.6533 36.9727 20.6481C36.9624 20.6326 36.9469 20.6222 36.9262 20.6222C36.9262 20.6222 36.9158 20.6222 36.9107 20.6222C36.89 20.6274 36.8693 20.6481 36.8693 20.674L36.8227 22.2515C36.8176 22.3602 36.7555 22.4171 36.6365 22.4171C36.5952 22.4171 36.5383 22.4119 36.5021 22.3757C36.4762 22.3498 36.4658 22.3084 36.471 22.2567L36.5176 21.4188C36.5383 21.0929 36.5383 20.5808 36.5176 19.8929C36.5176 19.8102 36.5331 19.7171 36.5486 19.7015C36.6158 19.7015 36.6883 19.774 36.7193 19.805L37.6865 21.0515C37.6865 21.0515 37.7124 21.0722 37.7279 21.0722C37.7486 21.0722 37.7641 21.0619 37.7745 21.0464C38.0383 20.5757 38.3796 20.1102 38.7934 19.6602C39.0107 19.6602 39.1607 20.5395 39.259 22.3343C39.259 22.3343 39.2486 22.4171 39.1762 22.4377C39.1452 22.4429 39.1193 22.4481 39.0934 22.4481L39.1038 22.4533Z" fill="#1A1A1A"/>
<path d="M42.8475 22.7887C42.3044 22.7887 41.8596 22.6076 41.5234 22.2507C40.9131 21.6093 40.6493 20.4197 40.7372 18.7231V18.6145C40.7527 18.4387 40.8769 18.418 40.8769 18.418H40.882C40.9286 18.418 41.001 18.4387 41.0165 18.6042C41.0165 18.6042 41.0165 18.6714 41.0165 18.6766C41.0372 19.7318 41.151 21.0818 41.5596 21.4852C41.932 21.9352 42.2786 22.2404 42.7648 22.2404C43.9855 22.2404 44.2027 20.2645 44.2131 20.1766C44.2389 19.8766 44.2182 19.6128 44.1975 19.3283C44.1872 19.1473 44.1769 18.9818 44.1717 18.8111C44.1717 18.749 44.1717 18.6921 44.182 18.63L44.1924 18.5162C44.1924 18.4645 44.2131 18.4387 44.2596 18.4231C44.27 18.4231 44.2855 18.4231 44.301 18.4231C44.3269 18.4231 44.3424 18.4231 44.3527 18.4231C44.3631 18.4231 44.7665 18.4749 44.7717 20.0473C44.782 21.6042 44.0993 22.5766 42.8527 22.7835H42.8424L42.8475 22.7887Z" fill="#1A1A1A"/>
<path d="M33.1549 22.788C32.617 22.788 32.167 22.6069 31.8308 22.25C31.2204 21.6087 30.9566 20.419 31.0446 18.7225V18.6138C31.0601 18.438 31.1842 18.4173 31.1842 18.4173H31.1894C31.2308 18.4173 31.3084 18.438 31.3239 18.6035C31.3239 18.6138 31.3239 18.6345 31.3239 18.6707C31.3446 19.7259 31.4584 21.0759 31.867 21.4794C32.2394 21.9294 32.586 22.2345 33.0722 22.2345C34.3135 22.2345 34.5153 20.1914 34.5204 20.1707C34.5463 19.8759 34.5256 19.6121 34.5049 19.3276C34.4946 19.1569 34.4842 18.9862 34.4791 18.8052C34.4791 18.7483 34.4791 18.6914 34.4894 18.6294C34.4894 18.5828 34.4946 18.5466 34.4997 18.5052C34.4997 18.4535 34.5204 18.4276 34.567 18.4121C34.5773 18.4121 34.5929 18.4121 34.6084 18.4121C34.6342 18.4121 34.6497 18.4121 34.6601 18.4121C34.6704 18.4121 35.0687 18.4638 35.0791 20.0362C35.0894 21.5931 34.4066 22.5656 33.1601 22.7725H33.1497L33.1549 22.788Z" fill="#1A1A1A"/>
<path d="M35.5494 12.0405C35.5494 12.0405 36.7856 13.4216 38.5391 13.4216C39.0356 13.4216 39.6201 13.4009 40.1529 13.0698C41.8649 12.0147 42.258 10.4319 42.1805 9.82674C43.1167 8.51294 43.7218 7.11122 43.7632 7.02846C44.1718 6.24226 44.3891 5.56467 44.2908 4.94398C44.1977 4.34915 43.7322 3.78019 43.1063 3.76984C42.7908 3.76467 42.377 3.82157 42.0874 4.13708C41.6374 4.62846 41.4874 5.26467 41.3477 5.83881C41.3167 5.96294 41.3115 6.18019 41.2856 6.30432C41.177 6.76467 41.1563 7.23019 40.9701 7.62846C40.7218 8.16122 40.2253 8.46639 39.8167 8.54398C39.1443 8.67329 38.3787 8.75605 37.6391 8.83363C36.6098 8.94743 36.0305 9.35605 35.5701 10.0078C35.4408 10.1888 35.3529 10.4423 35.2856 10.7474C35.2856 10.7474 35.0632 11.5854 35.5494 12.0457V12.0405ZM39.6718 12.8526C38.7046 13.2147 38.0891 13.1371 37.0856 12.6095C37.0856 12.6095 37.9908 12.6147 38.4305 12.5371C38.6787 12.4905 39.1132 12.4336 39.4598 12.2578C39.7546 12.1078 40.1167 11.8285 40.4632 11.5285C40.4632 11.5285 41.5029 10.4629 41.7253 10.1785C41.7253 10.1785 41.5287 12.1595 39.6667 12.8526H39.6718ZM43.7425 5.03191C43.8201 5.53363 43.6236 6.09226 43.2718 6.78019C43.2563 6.81122 41.7667 9.90432 40.2149 11.2336C39.9046 11.4974 39.5115 11.7198 39.258 11.8492C39.0356 11.9629 38.7408 12.0354 38.3943 12.0974C37.5925 12.2423 36.9305 12.0974 36.3356 11.9371C35.5598 11.7302 35.8236 10.8871 35.8236 10.8871C35.8753 10.6388 35.9891 10.494 36.0718 10.3492C36.4029 9.74915 37.1011 9.42329 37.696 9.36122C38.4563 9.27846 39.2167 9.1026 39.8943 8.97329C40.4839 8.8595 41.1046 8.54398 41.4356 7.8457C41.6477 7.3957 41.596 6.84226 41.7046 6.37674C41.7305 6.2526 41.7253 6.12329 41.7563 6.00432C41.8805 5.49743 42.0925 4.8457 42.4649 4.44743C42.5684 4.33363 42.858 4.3026 43.0856 4.3026C43.0856 4.3026 43.6287 4.26639 43.7477 5.04226L43.7425 5.03191Z" fill="#1A1A1A"/>
<path d="M35.5497 12.0405C35.5497 12.0405 36.7859 13.4216 38.5393 13.4216C39.0359 13.4216 39.6204 13.4009 40.1531 13.0698C41.8652 12.0147 42.2583 10.4319 42.1807 9.82674C43.1169 8.51294 43.7221 7.11122 43.7635 7.02846C44.1721 6.24226 44.3893 5.56467 44.291 4.94398C44.1979 4.34915 43.7324 3.78019 43.1066 3.76984C42.791 3.76467 42.3773 3.82157 42.0876 4.13708C41.6376 4.62846 41.4876 5.26467 41.3479 5.83881C41.3169 5.96294 41.3117 6.18019 41.2859 6.30432C41.1773 6.76467 41.1566 7.23019 40.9704 7.62846C40.7221 8.16122 40.2255 8.46639 39.8169 8.54398C39.1445 8.67329 38.379 8.75605 37.6393 8.83363C36.61 8.94743 36.0307 9.35605 35.5704 10.0078C35.441 10.1888 35.3531 10.4423 35.2859 10.7474C35.2859 10.7474 35.0635 11.5854 35.5497 12.0457V12.0405Z" fill="#C3E1F0"/>
<path d="M35.5497 12.0405C35.5497 12.0405 36.7859 13.4216 38.5393 13.4216C39.0359 13.4216 39.6204 13.4009 40.1531 13.0698C41.8652 12.0147 42.2583 10.4319 42.1807 9.82674C43.1169 8.51294 43.7221 7.11122 43.7635 7.02846C44.1721 6.24226 44.3893 5.56467 44.291 4.94398C44.1979 4.34915 43.7324 3.78019 43.1066 3.76984C42.791 3.76467 42.3773 3.82157 42.0876 4.13708C41.6376 4.62846 41.4876 5.26467 41.3479 5.83881C41.3169 5.96294 41.3117 6.18019 41.2859 6.30432C41.1773 6.76467 41.1566 7.23019 40.9704 7.62846C40.7221 8.16122 40.2255 8.46639 39.8169 8.54398C39.1445 8.67329 38.379 8.75605 37.6393 8.83363C36.61 8.94743 36.0307 9.35605 35.5704 10.0078C35.441 10.1888 35.3531 10.4423 35.2859 10.7474C35.2859 10.7474 35.0635 11.5854 35.5497 12.0457V12.0405ZM39.6721 12.8526C38.7048 13.2147 38.0893 13.1371 37.0859 12.6095C37.0859 12.6095 37.9911 12.6147 38.4307 12.5371C38.679 12.4905 39.1135 12.4336 39.46 12.2578C39.7548 12.1078 40.1169 11.8285 40.4635 11.5285C40.4635 11.5285 41.5031 10.4629 41.7255 10.1785C41.7255 10.1785 41.529 12.1595 39.6669 12.8526H39.6721ZM43.7428 5.03191C43.8204 5.53363 43.6238 6.09226 43.2721 6.78019C43.2566 6.81122 41.7669 9.90432 40.2152 11.2336C39.9048 11.4974 39.5117 11.7198 39.2583 11.8492C39.0359 11.9629 38.7411 12.0354 38.3945 12.0974C37.5928 12.2423 36.9307 12.0974 36.3359 11.9371C35.56 11.7302 35.8238 10.8871 35.8238 10.8871C35.8755 10.6388 35.9893 10.494 36.0721 10.3492C36.4031 9.74915 37.1014 9.42329 37.6962 9.36122C38.4566 9.27846 39.2169 9.1026 39.8945 8.97329C40.4842 8.8595 41.1048 8.54398 41.4359 7.8457C41.6479 7.3957 41.5962 6.84226 41.7048 6.37674C41.7307 6.2526 41.7255 6.12329 41.7566 6.00432C41.8807 5.49743 42.0928 4.8457 42.4652 4.44743C42.5686 4.33363 42.8583 4.3026 43.0859 4.3026C43.0859 4.3026 43.629 4.26639 43.7479 5.04226L43.7428 5.03191Z" fill="#1A1A1A"/>
<path d="M39.6721 12.8519C38.7049 13.2139 38.0894 13.1364 37.0859 12.6088C37.0859 12.6088 37.9911 12.6139 38.4308 12.5364C38.679 12.4898 39.1135 12.4329 39.4601 12.257C39.7549 12.107 40.117 11.8277 40.4635 11.5277C40.4635 11.5277 41.5032 10.4622 41.7256 10.1777C41.7256 10.1777 41.529 12.1588 39.667 12.8519H39.6721Z" fill="#97CBE5"/>
<path d="M12.8789 28.2107L13.4014 28.6607C13.5514 28.8418 13.5669 29.0073 13.4376 29.1521C13.21 29.1056 12.7445 28.8573 12.0358 28.3969L10.9082 29.7004L10.7789 29.5866C10.5151 29.359 10.7582 28.8107 11.5134 27.9418L10.4686 27.0418L9.93066 26.3435L10.1582 26.0849C11.41 27.0107 12.3203 27.7193 12.8841 28.2056L12.8789 28.2107ZM14.3169 24.4349L14.5807 24.6625C14.7048 24.7711 14.7203 25.0142 14.6324 25.3969L14.4048 25.6556C13.7169 26.2762 13.1117 26.359 12.5893 25.909C12.0669 25.459 12.0669 24.9262 12.5893 24.3159L12.9255 23.928C13.2048 23.7159 13.6703 23.8866 14.3117 24.44L14.3169 24.4349ZM12.8738 24.7866C12.7651 24.9107 12.7858 25.1538 12.9307 25.5211L13.06 25.6297C13.1945 25.7487 13.5203 25.7228 14.0324 25.5573L14.141 25.428C14.291 25.2521 14.2807 25.0918 14.1048 24.9418L13.8462 24.7193C13.7117 24.6004 13.3858 24.6262 12.8738 24.7918V24.7866Z" fill="white"/>
<path d="M15.0572 31.6344C15.8123 32.6482 16.1537 33.2275 16.071 33.3724L15.683 33.3569C14.9899 32.581 14.6227 32.1775 14.571 32.1517C14.483 32.3069 14.1727 32.4 13.6296 32.4207L13.3296 32.2551L13.4951 31.9551C14.2192 31.5672 14.7417 31.4586 15.052 31.6344H15.0572ZM14.9486 28.6189L17.6692 30.1189L17.5865 30.2689L16.3503 30.3724C16.0555 30.9051 15.7555 31.3293 15.4503 31.65L15.1503 31.4844C15.7606 30.3775 15.8175 29.6844 15.3106 29.4051C14.7055 29.0741 14.4623 28.8051 14.571 28.6034L14.9537 28.6189H14.9486ZM18.3468 26.7465L18.383 27.7551C17.9382 28.562 17.1313 28.7069 15.9675 28.1948C15.6158 27.9982 15.6417 27.3569 16.0503 26.2655C16.3141 26.0172 16.5003 25.9241 16.5986 25.981C17.5451 26.3689 18.1296 26.6275 18.3468 26.7465ZM16.5675 26.7517L16.2986 27.5896L16.5986 27.7551C17.1003 28.0344 17.5192 27.9982 17.8399 27.6517C17.8451 27.4034 17.8761 27.2224 17.9382 27.1138L17.033 26.612C16.8158 26.5344 16.6606 26.5758 16.5623 26.7465L16.5675 26.7517Z" fill="white"/>
<path d="M19.0396 29.1504L20.5551 29.6573C20.7672 29.7659 20.8448 29.9211 20.7775 30.1073C19.7017 31.99 18.9724 32.8694 18.5896 32.74L18.5327 32.3469C19.3965 31.2659 19.9034 30.5004 20.0534 30.0504L18.8741 29.6573C18.6465 29.5797 18.5741 29.4297 18.6465 29.2073L19.0396 29.1504ZM22.5724 29.7711L22.9086 29.8849L22.7948 30.7797L22.4586 31.7883L22.6293 31.8452C23.4672 32.0004 23.9379 32.0935 24.031 32.1245L24.0827 32.5176L24.0258 32.6883C22.9034 32.3159 22.2517 32.409 22.0655 32.9676C21.6931 33.7176 21.3931 34.0538 21.1655 33.9763L21.1137 33.5831L21.7344 31.7314L22.2362 30.7745C22.2 30.5211 22.2 30.3349 22.2362 30.2107C22.4172 30.0297 22.531 29.8797 22.5672 29.7607L22.5724 29.7711Z" fill="white"/>
<path d="M26.2297 32.1088L26.5711 32.1657C26.478 32.7347 26.3177 32.9985 26.0901 32.9623C26.3021 33.6967 26.6487 34.1054 27.1142 34.1829L27.0314 34.6898L26.5194 34.6071L25.7797 33.7898L25.6142 33.764L24.4297 34.6174L24.259 34.5916L24.3159 34.2502L26.2401 32.114L26.2297 32.1088ZM28.8935 31.845L29.2401 31.9019C29.1935 33.4071 29.3021 34.1829 29.5608 34.2243L30.5797 34.3898L30.5539 34.5605C30.5177 34.7881 30.0366 34.8864 29.1108 34.8502C28.8832 35.5123 28.6556 35.8226 28.4332 35.7864L28.3194 35.4192L28.7901 32.5226C28.8108 32.4088 28.7642 32.3467 28.6504 32.326C28.8004 32.1243 28.8832 31.964 28.9039 31.8398L28.8935 31.845Z" fill="white"/>
<path d="M31.298 31.8248L33.5377 31.9489C33.8791 32.0834 34.0291 32.4403 33.998 33.0093L33.967 33.5265C33.9567 33.7541 33.367 33.9558 32.2032 34.1162L32.1825 34.4627C32.1618 34.8093 32.7308 35.011 33.8791 35.0782C33.8635 35.3058 33.7446 35.4145 33.517 35.4041L31.9653 35.3162C31.7739 35.3058 31.6239 34.892 31.5153 34.08C31.6446 33.8627 31.7118 33.6972 31.717 33.5731L32.9222 33.6403C33.0877 33.6507 33.2687 33.4851 33.4653 33.1489C33.4911 32.6524 32.7618 32.3265 31.2773 32.161L31.298 31.8145V31.8248ZM35.586 32.4145C35.9325 32.4351 36.0411 33.5938 35.9067 35.8903L35.5653 35.8696C35.3325 35.8541 35.2239 35.7351 35.2342 35.5076L35.3015 34.3024L35.2291 32.5696L35.5808 32.4145H35.586Z" fill="white"/>
<path d="M37.8619 31.385H38.2085C39.1292 31.3695 39.5947 31.9954 39.6154 33.2575V33.4281C39.6205 33.7747 38.8188 34.0747 37.2154 34.3282L37.0498 34.6747V35.0213C37.0602 35.4816 37.8723 35.6988 39.4809 35.6782L40.3395 35.6678V36.185L38.2757 36.2161C37.1274 36.2316 36.543 35.8385 36.5326 35.0368L36.5171 33.9971C36.5171 33.7333 37.3188 33.5523 38.9274 33.4437C38.9274 33.3299 38.9792 33.273 39.093 33.273C38.943 32.3523 38.705 31.8971 38.3843 31.9023H38.0378C37.7792 31.9126 37.5516 31.9695 37.3498 32.0937C37.1274 31.9799 36.9516 31.923 36.8274 31.9282C36.9361 31.5816 37.2826 31.4057 37.8567 31.4006L37.8619 31.385ZM38.6326 36.8988C38.7878 38.0471 39.0309 38.6161 39.3464 38.6109C39.9774 38.4868 40.4378 38.4247 40.7223 38.4195L40.9033 38.7609C40.9033 38.9885 40.7947 39.1075 40.5619 39.1126L37.624 39.154L36.7602 38.9937C36.7602 38.8126 37.2723 38.5747 38.3016 38.2799C38.2861 37.3592 38.3998 36.8988 38.6274 36.8937L38.6326 36.8988Z" fill="white"/>
<path d="M43.3708 30.8738L45.2484 30.6049C45.414 30.5842 45.6105 30.729 45.8329 31.0445L46.076 32.7566C46.0967 32.9169 45.9519 33.1135 45.6364 33.3411L44.2708 33.5325C44.1053 33.5532 43.9088 33.4083 43.6864 33.0928L43.3708 30.8738ZM44.0071 31.6497L44.1519 32.679C44.2191 32.9014 44.3484 32.9997 44.5398 32.9738L45.2226 32.8756C45.3881 32.8549 45.5329 32.6583 45.6622 32.2911L45.6157 31.9497L45.3209 31.1169L44.2967 31.2618C44.0743 31.329 43.976 31.4635 44.0019 31.6497H44.0071ZM44.7622 34.51L44.9329 34.4842C45.1243 34.4583 45.3519 34.8307 45.6157 35.6066L47.3484 35.5342L47.8605 35.4618L47.9122 35.8083L47.0846 36.098L46.0553 36.2428C45.4657 36.3256 45.0984 36.2014 44.9588 35.8756L44.7674 34.51H44.7622ZM47.2812 30.1445C47.4415 31.2825 48.0364 31.7842 49.0605 31.6342L49.0864 31.8049L48.7709 32.0273L47.9174 32.1463V33.3669L47.4053 33.4394L46.9915 30.5325C46.9915 30.2997 47.0898 30.1704 47.2812 30.1445Z" fill="white"/>
<path d="M49.7229 30.0181L50.8918 29.7181C51.1246 29.6974 51.2642 29.775 51.3108 29.9664C50.4211 30.194 50.0022 30.4215 50.0591 30.644L50.3177 31.6474C50.3746 31.8698 51.0987 31.9215 52.4953 31.7974L52.5832 32.1336L51.4142 32.4336C50.5246 32.6664 49.9918 32.444 49.816 31.7767L49.4694 30.4371C49.4487 30.2043 49.5315 30.0646 49.7177 30.0181H49.7229ZM50.2142 33.9905L53.6435 33.4629L53.7315 33.7991L51.3884 34.4043L50.178 34.5388L50.1367 34.3681L50.2194 33.9905H50.2142ZM51.228 35.1595L51.3936 35.1181C51.616 35.0612 51.8953 35.4646 52.2418 36.3233C53.2608 36.1784 53.8867 36.0802 54.1246 36.0181L54.2125 36.3491C53.447 36.6646 53.0177 36.8353 52.9194 36.8612C52.1022 36.9129 51.6522 36.7888 51.5746 36.494L51.228 35.1595Z" fill="white"/>
<path d="M55.3502 28.8921L59.1364 26.9473L59.2968 27.2628C58.1123 28.0024 57.2485 28.5145 56.6951 28.799L55.5882 29.368C55.3761 29.4766 55.2158 29.4249 55.1123 29.218L55.3502 28.8973V28.8921ZM57.8899 28.7835C58.0295 28.7111 58.4847 29.0783 59.2502 29.88C59.5658 29.7197 59.7778 29.7455 59.8864 29.9524C59.8347 30.1128 58.9968 30.6766 57.3675 31.649L56.4985 31.8973L56.3382 31.5817C56.7571 31.3645 56.8037 30.9404 56.483 30.3093C56.3226 29.9938 56.3433 29.7817 56.5554 29.6731C57.0933 30.4593 57.4658 30.7955 57.6778 30.6869L58.3089 30.3662C58.5209 30.2576 58.5726 30.0973 58.464 29.8904L58.3089 29.9731V29.5749L58.2209 29.4145C58.164 29.3111 58.0864 29.2852 57.983 29.3369C57.983 29.0783 57.9571 28.8921 57.9002 28.7835H57.8899ZM60.8485 31.0542C61.1071 31.0542 61.2933 31.0231 61.402 30.9662L61.4847 31.1266C61.5933 31.3386 61.4847 31.5249 61.1744 31.6852L60.3054 31.9335V32.3317L61.0347 33.3559L60.7968 33.6766C60.6106 33.7749 60.2071 33.3817 59.5968 32.4973L58.3347 33.1438L57.4658 33.3921L57.3054 33.0766L57.4658 32.9938C57.6726 32.8852 58.8054 32.2386 60.8589 31.0542H60.8485Z" fill="white"/>
<path d="M59.1522 25.2041L59.4108 24.9765C59.9797 24.5731 60.3522 24.4748 60.5332 24.6765C59.5866 25.5144 59.2608 26.1041 59.5659 26.4506C60.4039 27.3972 61.1228 27.6041 61.728 27.0713C62.0746 26.7662 62.3228 26.7041 62.478 26.8748L62.3332 27.2317C61.2211 28.0593 60.5125 28.3024 60.2073 27.9558L59.0642 26.6627C58.6039 26.1455 58.6349 25.6541 59.1522 25.1989V25.2041ZM61.7384 22.9179L61.8677 22.8041C62.0384 22.6541 62.2401 22.7058 62.4677 22.9644C63.6315 24.392 64.0659 25.2351 63.7815 25.4886C63.6987 25.3955 63.5435 25.3075 63.3056 25.2144C62.3901 23.8282 61.8677 23.0627 61.7384 22.9127V22.9179ZM63.5177 27.8006L63.647 27.6869C64.3349 27.0765 64.9866 27.1179 65.597 27.811L66.0521 28.3282C65.9177 28.4472 65.8194 28.6851 65.7625 29.042L65.1159 29.6162C64.4901 29.7662 64.1228 29.7817 64.0142 29.6679L63.4401 29.0213C63.3366 28.9075 63.3625 28.4989 63.5125 27.8058L63.5177 27.8006ZM63.8487 28.4317L64.2884 29.192C64.7228 29.1144 65.059 28.9696 65.297 28.7627L65.1935 28.3903L64.8521 28.0024C64.7021 27.8317 64.5366 27.8213 64.3659 27.9713L63.8487 28.4265V28.4317Z" fill="white"/>
</svg>
